<svg xmlns="http://www.w3.org/2000/svg" xmlns:v="https://svgstorm.com"
viewBox = "0 0 1024 1024"
width="1024"
height="1024">
<g fill="None" fill-opacity="0.0" stroke="#000000" stroke-opacity="0.00" stroke-width="0.3"><path d="
M 0.00 1024.00 
L 1024.00 1024.00
L 1024.00 0.00
L 0.00 0.00
L 0.00 1024.00
M 624.00 251.00 
C 621.12 254.50 618.08 259.39 615.08 263.08 C 612.08 266.78 607.21 270.89 604.75 274.75 C 602.29 278.61 596.66 283.09 594.75 286.75 C 592.84 290.41 584.93 295.48 585.00 299.00
C 596.22 295.33 610.09 300.63 622.00 299.00 C 633.91 297.37 647.83 299.78 660.00 299.00 C 672.17 298.22 684.78 299.42 697.00 299.00 C 709.22 298.58 722.58 298.89 734.00 300.00
C 741.17 300.00 748.11 299.95 755.00 301.00
C 793.04 306.80 827.48 331.92 841.00 369.00
C 842.28 372.52 843.38 376.25 844.00 380.00
C 847.49 373.64 844.11 387.66 846.00 391.00
C 848.62 382.00 847.77 391.49 847.00 396.00
C 847.63 451.33 849.75 508.30 848.00 564.00 C 846.25 619.70 852.30 677.30 847.00 732.00
C 847.00 737.11 849.24 754.43 846.00 742.00
C 846.21 745.56 845.25 748.82 844.00 752.00
C 833.62 789.75 805.02 819.88 766.00 828.00
C 764.30 828.35 762.88 828.78 761.00 829.00
C 759.97 829.25 758.50 829.80 757.00 830.00
C 753.31 830.50 749.94 831.00 746.00 831.00
C 740.30 831.55 733.38 832.00 727.00 832.00
C 584.33 832.00 441.67 832.00 299.00 832.00
C 294.59 832.00 289.66 831.35 286.00 831.00
C 281.70 831.00 278.06 830.55 274.00 830.00
C 272.44 829.79 271.06 829.26 270.00 829.00
C 267.54 828.72 265.40 828.56 263.00 828.00
C 261.22 827.58 259.41 826.47 258.00 826.00
C 253.04 824.37 247.73 823.64 243.00 821.00
C 239.72 820.27 242.49 821.16 241.00 820.00
C 231.31 816.37 224.63 808.33 216.00 803.00
C 215.68 802.80 215.25 802.24 215.00 802.00
C 213.95 801.33 213.65 801.02 213.00 800.00
C 212.76 799.75 212.23 799.28 212.00 799.00
C 206.29 793.54 200.85 786.44 197.00 779.00
C 196.82 778.73 196.17 778.33 196.00 778.00
C 188.45 763.42 183.00 747.94 183.00 731.00
C 177.82 677.52 181.97 620.46 182.00 566.00 C 182.03 511.54 177.82 453.49 183.00 400.00
C 183.00 388.13 185.22 375.58 190.00 365.00
C 206.74 327.95 243.29 300.01 285.00 300.00
C 287.00 300.00 289.00 300.00 291.00 300.00
C 296.04 299.51 302.27 299.00 308.00 299.00
C 318.72 299.00 329.26 298.75 340.00 299.00 C 350.74 299.25 362.31 298.36 373.00 299.00 C 383.69 299.64 395.57 297.56 406.00 299.00 C 416.43 300.44 428.88 296.21 438.00 298.00
C 427.86 286.74 417.63 274.22 408.75 262.25 C 399.88 250.27 387.94 238.47 379.75 226.25 C 371.56 214.02 354.82 202.10 354.00 187.00
C 353.48 183.81 351.89 179.74 352.00 176.00
C 353.67 176.24 352.17 178.85 354.00 179.00
C 356.21 157.44 387.28 151.77 399.25 166.75 C 411.21 181.73 420.96 194.02 432.75 208.25 C 444.55 222.48 454.09 236.28 465.75 250.25 C 477.42 264.21 488.68 277.31 499.00 292.00
C 515.47 294.86 529.51 287.28 537.75 274.75 C 545.99 262.22 554.67 255.47 563.25 244.25 C 571.84 233.04 580.03 224.51 588.77 213.77 C 597.51 203.03 605.94 193.47 614.77 182.77 C 623.60 172.07 631.13 159.88 646.00 158.00 C 660.88 156.13 675.87 172.40 673.00 187.00 C 670.13 201.60 659.12 209.48 650.70 220.70 C 642.27 231.92 633.18 240.80 624.00 251.00
M 524.00 288.00 
C 524.74 288.74 523.18 287.18 524.00 288.00
M 181.00 400.00 
C 180.33 410.17 182.33 421.66 180.00 431.00
C 180.12 421.63 179.05 409.30 181.00 400.00
M 180.00 470.00 
C 179.61 458.66 180.07 443.71 180.00 432.00
C 181.68 443.68 181.65 458.01 180.00 470.00
M 181.00 520.00 
C 179.03 504.87 180.13 486.71 180.00 472.00
C 182.33 487.09 180.34 504.15 181.00 520.00
M 181.00 521.00 
C 181.00 580.00 181.00 639.00 181.00 698.00
C 179.33 640.07 179.33 578.86 181.00 521.00
M 181.00 699.00 
C 181.00 708.67 181.00 718.34 181.00 728.00
C 179.35 719.41 179.32 707.52 181.00 699.00 Z"/>
</g>
<g fill="None" fill-opacity="0.0" stroke="#CC3D3B" stroke-opacity="1.00" stroke-width="0.3"><path d="
M 354.00 179.00 
C 353.74 181.55 353.86 184.44 354.00 187.00
C 354.82 202.10 371.56 214.02 379.75 226.25 C 387.94 238.47 399.88 250.27 408.75 262.25 C 417.63 274.22 427.86 286.74 438.00 298.00
C 438.45 298.50 439.41 298.96 439.00 300.00
C 437.60 303.56 425.60 300.10 421.00 301.00 C 416.40 301.90 406.60 300.57 401.00 301.00 C 395.40 301.43 388.12 300.80 382.00 301.00 C 375.88 301.20 368.32 300.88 362.00 301.00 C 355.68 301.12 349.41 300.88 343.00 301.00 C 336.59 301.12 329.42 300.80 323.00 301.00 C 316.58 301.20 310.38 300.57 304.00 301.00 C 297.62 301.43 290.59 300.54 285.00 300.00
C 243.29 300.01 206.74 327.95 190.00 365.00
C 189.86 365.97 189.23 373.10 187.07 379.07 C 184.91 385.05 185.10 393.08 184.02 400.02 C 182.94 406.97 184.47 416.48 184.00 424.00 C 183.53 431.52 184.21 440.22 184.00 448.00 C 183.79 455.78 184.10 464.10 184.00 472.00 C 183.90 479.90 184.04 488.04 184.00 496.00 C 183.96 503.96 184.02 512.02 184.00 520.00 C 183.98 527.98 184.01 536.01 184.00 544.00 C 183.99 551.99 184.01 560.01 184.00 568.00 C 183.99 575.99 184.01 584.01 184.00 592.00 C 183.99 599.99 184.01 608.01 184.00 616.00 C 183.99 623.99 184.02 632.03 184.00 640.00 C 183.98 647.97 184.04 656.07 184.00 664.00 C 183.96 671.93 184.08 680.15 184.00 688.00 C 183.92 695.85 184.18 704.33 184.00 712.00 C 183.82 719.67 183.98 728.04 184.98 735.02 C 185.98 742.01 186.19 749.47 188.33 755.67 C 190.47 761.87 192.21 767.62 194.93 773.07 C 197.65 778.53 200.84 783.17 204.25 787.75 C 207.67 792.32 211.32 796.95 215.25 800.75 C 219.19 804.54 224.12 808.48 228.75 811.25 C 233.37 814.03 239.23 817.95 244.23 819.77 C 249.23 821.59 257.98 825.99 258.00 826.00
C 259.41 826.47 261.22 827.58 263.00 828.00
C 262.44 827.73 261.30 826.70 261.00 826.00
C 315.29 833.33 371.98 829.37 428.00 830.00 C 484.02 830.63 543.01 829.93 599.00 830.00 C 654.99 830.08 712.20 831.29 766.00 828.00
C 805.02 819.88 833.62 789.75 844.00 752.00
C 844.65 743.10 845.49 732.04 846.00 722.00
C 848.13 724.43 846.47 728.82 847.00 732.00
C 852.30 677.30 846.25 619.70 848.00 564.00 C 849.75 508.30 847.63 451.33 847.00 396.00
C 846.41 394.56 844.52 386.40 843.02 381.98 C 841.53 377.55 841.00 368.98 841.00 369.00
C 827.48 331.92 793.04 306.80 755.00 301.00
C 749.39 301.45 741.40 301.62 733.00 301.00 C 724.60 300.38 714.68 301.26 706.00 301.00 C 697.32 300.74 687.76 301.08 679.00 301.00 C 670.24 300.92 661.79 300.92 653.00 301.00 C 644.21 301.08 634.78 300.74 626.00 301.00 C 617.22 301.26 607.63 300.37 599.00 301.00 C 590.37 301.63 580.91 301.40 586.75 294.75 C 592.60 288.11 593.98 285.60 598.92 279.92 C 603.85 274.24 606.77 270.55 611.25 265.25 C 615.73 259.95 618.83 255.42 624.00 251.00
C 633.18 240.80 642.27 231.92 650.70 220.70 C 659.12 209.48 670.13 201.60 673.00 187.00 C 675.87 172.40 660.88 156.13 646.00 158.00 C 631.13 159.88 623.60 172.07 614.77 182.77 C 605.94 193.47 597.51 203.03 588.77 213.77 C 580.03 224.51 571.84 233.04 563.25 244.25 C 554.67 255.47 545.99 262.22 537.75 274.75 C 529.51 287.28 515.47 294.86 499.00 292.00
C 488.68 277.31 477.42 264.21 465.75 250.25 C 454.09 236.28 444.55 222.48 432.75 208.25 C 420.96 194.02 411.21 181.73 399.25 166.75 C 387.28 151.77 356.21 157.44 354.00 179.00
M 358.00 375.00 
C 358.73 375.16 359.74 375.89 361.00 376.00
C 369.33 375.57 379.62 376.29 388.22 377.78 C 396.83 379.27 407.36 380.58 413.00 383.00
C 416.27 383.76 420.40 385.21 424.00 386.00
C 428.51 386.41 433.20 387.02 438.00 389.00
C 440.31 389.95 443.32 391.20 446.00 392.00
C 453.99 393.27 473.53 396.01 480.00 403.00
C 480.24 403.26 480.65 403.87 481.00 404.00
C 486.57 402.55 501.99 411.14 507.00 415.00
C 507.89 415.69 507.76 415.64 509.00 416.00
C 513.89 417.43 518.06 420.16 522.00 423.00
C 527.91 426.44 534.04 430.31 540.00 434.00
C 549.68 437.98 569.58 448.61 576.00 459.00
C 576.20 459.32 576.68 459.80 577.00 460.00
C 582.33 459.58 594.96 474.27 599.00 479.00
C 602.07 482.60 605.45 485.97 609.00 489.00
C 615.76 494.77 622.92 501.81 628.25 508.75 C 633.57 515.69 641.83 523.76 645.75 531.25 C 649.68 538.73 660.42 547.54 660.00 555.00
C 660.21 555.30 660.71 555.77 661.00 556.00
C 666.07 559.96 669.86 569.06 672.00 575.00
C 672.79 577.20 674.06 579.10 675.00 581.00
C 680.69 589.38 685.14 601.07 687.00 610.00
C 691.83 623.08 695.64 637.57 701.00 650.00
C 704.94 659.12 706.65 669.63 707.00 679.00
C 707.43 681.36 708.35 684.05 709.00 686.00
C 712.00 695.01 712.92 705.74 712.00 715.00
C 712.14 716.13 712.83 716.36 713.00 717.00
C 715.51 718.92 717.40 734.29 714.22 741.22 C 711.04 748.15 698.89 747.15 690.00 747.00 C 681.11 746.85 671.72 746.41 661.00 747.00 C 650.28 747.59 649.64 738.45 650.00 730.00
C 649.40 718.99 648.30 706.02 645.00 696.00
C 642.90 689.62 642.43 683.11 642.00 677.00
C 640.77 671.62 638.70 665.90 637.00 661.00
C 635.84 658.72 630.51 649.30 632.00 645.00
C 631.89 644.65 631.26 644.24 631.00 644.00
C 627.83 641.06 623.13 628.34 624.00 625.00
C 623.83 624.67 623.26 624.25 623.00 624.00
C 616.55 617.82 614.59 606.25 609.25 598.75 C 603.91 591.26 599.88 581.41 593.75 574.25 C 587.62 567.09 582.92 559.38 576.75 552.25 C 570.58 545.12 563.83 538.65 557.25 531.75 C 550.67 524.86 543.70 519.29 536.75 513.25 C 529.81 507.21 520.36 502.35 513.75 496.25 C 507.15 490.14 493.50 488.59 489.00 481.00
C 488.81 480.68 488.33 480.17 488.00 480.00
C 483.04 480.28 475.28 474.56 469.92 472.08 C 464.57 469.59 455.10 467.28 451.00 463.00
C 450.75 462.74 450.35 462.11 450.00 462.00
C 447.46 462.63 442.29 461.47 440.00 459.00
C 439.76 458.74 439.35 458.11 439.00 458.00
C 430.28 461.02 416.49 450.38 405.99 450.01 C 395.50 449.64 378.99 443.90 370.00 442.00
C 361.99 441.25 353.94 440.54 346.00 440.00
C 340.62 440.16 329.37 441.04 330.03 431.98 C 330.68 422.91 328.40 413.65 330.00 406.00 C 331.60 398.35 325.96 385.87 331.00 381.00
C 331.26 380.75 332.00 381.00 332.00 381.00
C 332.00 380.50 332.00 380.00 332.00 380.00
C 329.49 376.67 337.94 372.10 342.00 373.00 C 346.06 373.90 356.23 373.92 358.00 375.00
M 339.00 502.00 
C 340.30 502.13 341.69 502.00 343.00 502.00
C 354.40 500.45 373.02 501.84 384.02 504.98 C 395.03 508.11 412.21 506.57 420.00 515.00
C 420.24 515.26 420.65 515.87 421.00 516.00
C 426.71 514.58 437.48 521.02 443.23 523.77 C 448.97 526.52 460.64 529.33 464.00 535.00
C 464.19 535.32 464.67 535.83 465.00 536.00
C 469.71 535.73 476.50 541.86 481.08 544.92 C 485.66 547.98 492.99 552.13 496.00 557.00
C 496.20 557.32 496.68 557.80 497.00 558.00
C 503.77 557.47 513.44 572.00 519.75 577.25 C 526.07 582.50 535.02 594.26 539.77 601.23 C 544.52 608.20 556.44 620.28 556.00 628.00
C 556.17 628.33 556.68 628.81 557.00 629.00
C 561.01 631.37 566.90 644.52 566.00 648.00
C 566.13 648.35 566.70 648.79 567.00 649.00
C 572.69 652.91 571.45 662.38 574.98 668.02 C 578.50 673.67 579.40 682.51 580.00 688.00
C 580.81 691.04 581.97 694.35 583.00 697.00
C 587.97 709.82 584.89 716.75 588.98 731.02 C 593.06 745.30 574.91 750.32 564.00 747.00 C 553.09 743.68 533.23 752.39 525.75 744.25 C 518.28 736.11 520.85 720.01 520.00 711.00
C 519.07 706.92 517.55 702.56 516.00 699.00
C 511.22 688.06 505.99 674.27 502.00 664.00
C 500.46 661.21 498.57 658.51 497.00 656.00
C 492.36 650.35 488.39 644.06 483.70 638.30 C 479.01 632.55 473.72 626.90 468.25 621.75 C 462.78 616.61 456.95 612.63 451.30 607.70 C 445.65 602.76 438.19 599.24 432.30 594.70 C 426.42 590.16 417.60 588.52 411.92 584.08 C 406.25 579.63 392.86 580.47 389.00 575.00
C 388.79 574.70 388.35 574.07 388.00 574.00
C 382.75 575.81 374.64 570.78 368.98 571.02 C 363.31 571.27 352.54 567.16 347.93 568.07 C 343.31 568.99 328.12 566.14 332.00 561.00
C 331.91 560.52 332.00 560.00 332.00 560.00
C 331.75 559.75 331.00 560.00 331.00 560.00
C 326.53 555.67 331.58 544.42 330.00 538.00 C 328.42 531.58 331.20 522.06 330.00 515.00 C 328.80 507.94 332.41 501.35 339.00 502.00
M 440.00 668.00 
C 440.56 669.47 441.41 670.83 442.00 672.00
C 444.55 677.07 447.67 694.19 444.00 697.00
C 443.89 697.44 443.15 698.12 443.00 699.00
C 446.23 723.46 413.98 745.87 393.00 746.00
C 378.56 748.06 362.79 744.77 351.00 736.00
C 338.16 729.05 326.84 711.14 328.00 696.00
C 327.77 691.75 327.77 687.25 328.00 683.00
C 327.28 673.66 333.11 657.83 340.25 651.25 C 347.39 644.67 357.67 630.76 367.00 634.00
C 367.35 633.87 367.75 633.25 368.00 633.00
C 374.89 625.96 392.32 630.58 401.07 631.93 C 409.83 633.27 418.52 639.55 425.75 645.25 C 432.99 650.94 438.22 660.72 440.00 668.00 Z"/>
</g>
<g fill="None" fill-opacity="0.0" stroke="#B47E73" stroke-opacity="0.22" stroke-width="0.3"><path d="
M 354.00 187.00 
C 353.86 184.44 353.74 181.55 354.00 179.00
C 352.17 178.85 353.67 176.24 352.00 176.00
C 351.89 179.74 353.48 183.81 354.00 187.00 Z"/>
</g>
<g fill="None" fill-opacity="0.0" stroke="#A02323" stroke-opacity="0.90" stroke-width="0.3"><path d="
M 755.00 301.00 
C 748.11 299.95 741.17 300.00 734.00 300.00
C 725.73 300.00 717.26 300.01 709.00 300.00 C 700.74 299.99 692.18 300.03 684.00 300.00 C 675.82 299.97 665.92 300.06 658.00 300.00 C 650.08 299.94 640.19 300.14 633.00 300.00 C 625.81 299.86 613.71 300.31 608.00 300.00 C 602.29 299.69 585.04 301.12 585.00 299.00
C 584.93 295.48 592.84 290.41 594.75 286.75 C 596.66 283.09 602.29 278.61 604.75 274.75 C 607.21 270.89 612.08 266.78 615.08 263.08 C 618.08 259.39 621.12 254.50 624.00 251.00
C 618.83 255.42 615.73 259.95 611.25 265.25 C 606.77 270.55 603.85 274.24 598.92 279.92 C 593.98 285.60 592.60 288.11 586.75 294.75 C 580.91 301.40 590.37 301.63 599.00 301.00 C 607.63 300.37 617.22 301.26 626.00 301.00 C 634.78 300.74 644.21 301.08 653.00 301.00 C 661.79 300.92 670.24 300.92 679.00 301.00 C 687.76 301.08 697.32 300.74 706.00 301.00 C 714.68 301.26 724.60 300.38 733.00 301.00 C 741.40 301.62 749.39 301.45 755.00 301.00 Z"/>
</g>
<g fill="None" fill-opacity="0.0" stroke="#5FBFDF" stroke-opacity="0.03" stroke-width="0.3"><path d="
M 524.00 288.00 
C 523.18 287.18 524.74 288.74 524.00 288.00 Z"/>
</g>
<g fill="None" fill-opacity="0.0" stroke="#B14B44" stroke-opacity="0.60" stroke-width="0.3"><path d="
M 308.00 299.00 
C 308.04 299.00 308.00 300.00 308.00 300.00
C 318.27 300.00 329.86 300.01 340.00 300.00 C 350.14 299.99 347.33 300.06 357.00 300.00 C 366.67 299.94 379.52 300.10 389.00 300.00 C 398.48 299.90 399.00 300.54 406.00 300.00 C 413.00 299.46 416.87 301.47 422.00 300.00 C 427.13 298.53 435.68 303.15 439.00 300.00
C 439.41 298.96 438.45 298.50 438.00 298.00
C 428.88 296.21 416.43 300.44 406.00 299.00 C 395.57 297.56 383.69 299.64 373.00 299.00 C 362.31 298.36 350.74 299.25 340.00 299.00 C 329.26 298.75 318.72 299.00 308.00 299.00 Z"/>
</g>
<g fill="None" fill-opacity="0.0" stroke="#CB5047" stroke-opacity="0.38" stroke-width="0.3"><path d="
M 291.00 300.00 
C 296.67 300.00 302.33 300.00 308.00 300.00
C 308.00 300.00 308.04 299.00 308.00 299.00
C 302.27 299.00 296.04 299.51 291.00 300.00 Z"/>
</g>
<g fill="None" fill-opacity="0.0" stroke="#B44B44" stroke-opacity="0.57" stroke-width="0.3"><path d="
M 734.00 300.00 
C 722.58 298.89 709.22 298.58 697.00 299.00 C 684.78 299.42 672.17 298.22 660.00 299.00 C 647.83 299.78 633.91 297.37 622.00 299.00 C 610.09 300.63 596.22 295.33 585.00 299.00
C 585.04 301.12 602.29 299.69 608.00 300.00 C 613.71 300.31 625.81 299.86 633.00 300.00 C 640.19 300.14 650.08 299.94 658.00 300.00 C 665.92 300.06 675.82 299.97 684.00 300.00 C 692.18 300.03 700.74 299.99 709.00 300.00 C 717.26 300.01 725.73 300.00 734.00 300.00 Z"/>
</g>
<g fill="None" fill-opacity="0.0" stroke="#931719" stroke-opacity="1.00" stroke-width="0.3"><path d="
M 439.00 300.00 
C 435.68 303.15 427.13 298.53 422.00 300.00 C 416.87 301.47 413.00 299.46 406.00 300.00 C 399.00 300.54 398.48 299.90 389.00 300.00 C 379.52 300.10 366.67 299.94 357.00 300.00 C 347.33 300.06 350.14 299.99 340.00 300.00 C 329.86 300.01 318.27 300.00 308.00 300.00
C 302.33 300.00 296.67 300.00 291.00 300.00
C 289.00 300.00 287.00 300.00 285.00 300.00
C 290.59 300.54 297.62 301.43 304.00 301.00 C 310.38 300.57 316.58 301.20 323.00 301.00 C 329.42 300.80 336.59 301.12 343.00 301.00 C 349.41 300.88 355.68 301.12 362.00 301.00 C 368.32 300.88 375.88 301.20 382.00 301.00 C 388.12 300.80 395.40 301.43 401.00 301.00 C 406.60 300.57 416.40 301.90 421.00 301.00 C 425.60 300.10 437.60 303.56 439.00 300.00 Z"/>
</g>
<g fill="None" fill-opacity="0.0" stroke="#AC2524" stroke-opacity="0.91" stroke-width="0.3"><path d="
M 190.00 365.00 
C 185.22 375.58 183.00 388.13 183.00 400.00
C 183.00 510.34 183.00 620.67 183.00 731.00
C 183.00 747.94 188.45 763.42 196.00 778.00
C 196.18 778.27 196.83 778.67 197.00 779.00
C 200.85 786.44 206.29 793.54 212.00 799.00
C 212.26 799.25 212.80 799.69 213.00 800.00
C 213.65 801.02 213.95 801.33 215.00 802.00
C 215.31 802.20 215.73 802.79 216.00 803.00
C 224.63 808.33 231.31 816.37 241.00 820.00
C 242.05 820.39 242.17 820.53 243.00 821.00
C 247.73 823.64 253.04 824.37 258.00 826.00
C 257.98 825.99 249.23 821.59 244.23 819.77 C 239.23 817.95 233.37 814.03 228.75 811.25 C 224.12 808.48 219.19 804.54 215.25 800.75 C 211.32 796.95 207.67 792.32 204.25 787.75 C 200.84 783.17 197.65 778.53 194.93 773.07 C 192.21 767.62 190.47 761.87 188.33 755.67 C 186.19 749.47 185.98 742.01 184.98 735.02 C 183.98 728.04 183.82 719.67 184.00 712.00 C 184.18 704.33 183.92 695.85 184.00 688.00 C 184.08 680.15 183.96 671.93 184.00 664.00 C 184.04 656.07 183.98 647.97 184.00 640.00 C 184.02 632.03 183.99 623.99 184.00 616.00 C 184.01 608.01 183.99 599.99 184.00 592.00 C 184.01 584.01 183.99 575.99 184.00 568.00 C 184.01 560.01 183.99 551.99 184.00 544.00 C 184.01 536.01 183.98 527.98 184.00 520.00 C 184.02 512.02 183.96 503.96 184.00 496.00 C 184.04 488.04 183.90 479.90 184.00 472.00 C 184.10 464.10 183.79 455.78 184.00 448.00 C 184.21 440.22 183.53 431.52 184.00 424.00 C 184.47 416.48 182.94 406.97 184.02 400.02 C 185.10 393.08 184.91 385.05 187.07 379.07 C 189.23 373.10 189.86 365.97 190.00 365.00 Z"/>
</g>
<g fill="None" fill-opacity="0.0" stroke="#AF574C" stroke-opacity="0.69" stroke-width="0.3"><path d="
M 847.00 396.00 
C 847.77 391.49 848.62 382.00 846.00 391.00
C 844.11 387.66 847.49 373.64 844.00 380.00
C 843.38 376.25 842.28 372.52 841.00 369.00
C 841.00 368.98 841.53 377.55 843.02 381.98 C 844.52 386.40 846.41 394.56 847.00 396.00 Z"/>
</g>
<g fill="None" fill-opacity="0.0" stroke="#9F2D2A" stroke-opacity="1.00" stroke-width="0.3"><path d="
M 332.00 380.00 
C 333.64 371.39 351.85 373.65 358.00 375.00
C 356.23 373.92 346.06 373.90 342.00 373.00 C 337.94 372.10 329.49 376.67 332.00 380.00 Z"/>
</g>
<g fill="None" fill-opacity="0.0" stroke="#FAFAFA" stroke-opacity="1.00" stroke-width="0.3"><path d="
M 332.00 380.00 
C 332.00 380.00 332.00 380.50 332.00 381.00
C 332.00 397.54 329.25 416.73 332.00 433.00
C 334.28 440.50 338.84 439.51 346.00 440.00
C 353.94 440.54 361.99 441.25 370.00 442.00
C 393.59 444.21 416.64 451.00 439.00 458.00
C 439.35 458.11 439.76 458.74 440.00 459.00
C 443.37 459.91 446.62 460.94 450.00 462.00
C 450.35 462.11 450.75 462.74 451.00 463.00
C 463.54 468.23 475.85 473.71 488.00 480.00
C 488.33 480.17 488.81 480.68 489.00 481.00
C 518.96 491.69 544.48 517.58 567.75 540.25 C 591.02 562.91 610.76 594.61 623.00 624.00
C 623.26 624.25 623.83 624.67 624.00 625.00
C 627.05 630.85 629.30 637.69 631.00 644.00
C 631.26 644.24 631.89 644.65 632.00 645.00
C 633.66 650.30 635.17 655.72 637.00 661.00
C 638.70 665.90 640.77 671.62 642.00 677.00
C 643.43 683.27 643.79 689.62 645.00 696.00
C 648.30 706.02 649.40 718.99 650.00 730.00
C 650.42 737.78 651.57 746.93 661.00 746.00 C 670.43 745.07 681.03 746.80 689.00 746.00 C 696.97 745.20 708.51 748.73 712.25 742.25 C 715.99 735.76 714.78 723.89 713.00 717.00
C 712.83 716.36 712.14 716.13 712.00 715.00
C 710.80 705.27 710.85 695.59 709.00 686.00
C 708.35 684.05 707.43 681.36 707.00 679.00
C 705.23 669.31 703.58 659.51 701.00 650.00
C 695.64 637.57 691.83 623.08 687.00 610.00
C 683.43 600.34 679.58 590.27 675.00 581.00
C 674.06 579.10 672.79 577.20 672.00 575.00
C 668.99 568.92 664.83 561.81 661.00 556.00
C 660.71 555.77 660.21 555.30 660.00 555.00
C 643.97 532.25 629.28 509.28 609.00 489.00
C 605.45 485.97 602.07 482.60 599.00 479.00
C 592.73 472.73 584.51 464.65 577.00 460.00
C 576.68 459.80 576.20 459.32 576.00 459.00
C 565.21 449.46 552.13 441.51 540.00 434.00
C 534.04 430.31 527.91 426.44 522.00 423.00
C 517.83 420.57 513.07 418.09 509.00 416.00
C 507.76 415.64 507.89 415.69 507.00 415.00
C 498.70 411.06 489.64 407.26 481.00 404.00
C 480.65 403.87 480.24 403.26 480.00 403.00
C 469.12 398.46 457.30 395.38 446.00 392.00
C 443.32 391.20 440.31 389.95 438.00 389.00
C 433.42 387.76 428.68 387.02 424.00 386.00
C 420.40 385.21 416.27 383.76 413.00 383.00
C 396.09 379.07 378.53 377.50 361.00 376.00
C 359.74 375.89 358.73 375.16 358.00 375.00
C 351.85 373.65 333.64 371.39 332.00 380.00 Z"/>
</g>
<g fill="None" fill-opacity="0.0" stroke="#9C2927" stroke-opacity="1.00" stroke-width="0.3"><path d="
M 361.00 376.00 
C 378.53 377.50 396.09 379.07 413.00 383.00
C 407.36 380.58 396.83 379.27 388.22 377.78 C 379.62 376.29 369.33 375.57 361.00 376.00 Z"/>
</g>
<g fill="None" fill-opacity="0.0" stroke="#A71C1D" stroke-opacity="1.00" stroke-width="0.3"><path d="
M 346.00 440.00 
C 338.84 439.51 334.28 440.50 332.00 433.00
C 329.73 425.52 330.98 416.44 331.00 408.00 C 331.02 399.56 330.23 389.51 331.00 381.00
C 325.96 385.87 331.60 398.35 330.00 406.00 C 328.40 413.65 330.68 422.91 330.03 431.98 C 329.37 441.04 340.62 440.16 346.00 440.00 Z"/>
</g>
<g fill="None" fill-opacity="0.0" stroke="#DB8483" stroke-opacity="1.00" stroke-width="0.3"><path d="
M 332.00 433.00 
C 329.25 416.73 332.00 397.54 332.00 381.00
C 332.00 381.00 331.26 380.75 331.00 381.00
C 330.23 389.51 331.02 399.56 331.00 408.00 C 330.98 416.44 329.73 425.52 332.00 433.00 Z"/>
</g>
<g fill="None" fill-opacity="0.0" stroke="#952120" stroke-opacity="1.00" stroke-width="0.3"><path d="
M 424.00 386.00 
C 428.68 387.02 433.42 387.76 438.00 389.00
C 433.20 387.02 428.51 386.41 424.00 386.00 Z"/>
</g>
<g fill="None" fill-opacity="0.0" stroke="#9B2525" stroke-opacity="1.00" stroke-width="0.3"><path d="
M 446.00 392.00 
C 457.30 395.38 469.12 398.46 480.00 403.00
C 473.53 396.01 453.99 393.27 446.00 392.00 Z"/>
</g>
<g fill="None" fill-opacity="0.0" stroke="#4AD1D1" stroke-opacity="0.11" stroke-width="0.3"><path d="
M 181.00 400.00 
C 179.05 409.30 180.12 421.63 180.00 431.00
C 182.33 421.66 180.33 410.17 181.00 400.00 Z"/>
</g>
<g fill="None" fill-opacity="0.0" stroke="#D64945" stroke-opacity="0.78" stroke-width="0.3"><path d="
M 183.00 731.00 
C 183.00 620.67 183.00 510.34 183.00 400.00
C 177.82 453.49 182.03 511.54 182.00 566.00 C 181.97 620.46 177.82 677.52 183.00 731.00 Z"/>
</g>
<g fill="None" fill-opacity="0.0" stroke="#9D2A28" stroke-opacity="1.00" stroke-width="0.3"><path d="
M 481.00 404.00 
C 489.64 407.26 498.70 411.06 507.00 415.00
C 501.99 411.14 486.57 402.55 481.00 404.00 Z"/>
</g>
<g fill="None" fill-opacity="0.0" stroke="#901D1E" stroke-opacity="1.00" stroke-width="0.3"><path d="
M 522.00 423.00 
C 518.06 420.16 513.89 417.43 509.00 416.00
C 513.07 418.09 517.83 420.57 522.00 423.00 Z"/>
</g>
<g fill="None" fill-opacity="0.0" stroke="#58D9DC" stroke-opacity="0.08" stroke-width="0.3"><path d="
M 180.00 470.00 
C 181.65 458.01 181.68 443.68 180.00 432.00
C 180.07 443.71 179.61 458.66 180.00 470.00 Z"/>
</g>
<g fill="None" fill-opacity="0.0" stroke="#9F2827" stroke-opacity="1.00" stroke-width="0.3"><path d="
M 540.00 434.00 
C 552.13 441.51 565.21 449.46 576.00 459.00
C 569.58 448.61 549.68 437.98 540.00 434.00 Z"/>
</g>
<g fill="None" fill-opacity="0.0" stroke="#A12F2C" stroke-opacity="1.00" stroke-width="0.3"><path d="
M 439.00 458.00 
C 416.64 451.00 393.59 444.21 370.00 442.00
C 378.99 443.90 395.50 449.64 405.99 450.01 C 416.49 450.38 430.28 461.02 439.00 458.00 Z"/>
</g>
<g fill="None" fill-opacity="0.0" stroke="#962827" stroke-opacity="1.00" stroke-width="0.3"><path d="
M 450.00 462.00 
C 446.62 460.94 443.37 459.91 440.00 459.00
C 442.29 461.47 447.46 462.63 450.00 462.00 Z"/>
</g>
<g fill="None" fill-opacity="0.0" stroke="#9D2726" stroke-opacity="1.00" stroke-width="0.3"><path d="
M 577.00 460.00 
C 584.51 464.65 592.73 472.73 599.00 479.00
C 594.96 474.27 582.33 459.58 577.00 460.00 Z"/>
</g>
<g fill="None" fill-opacity="0.0" stroke="#9C2827" stroke-opacity="1.00" stroke-width="0.3"><path d="
M 488.00 480.00 
C 475.85 473.71 463.54 468.23 451.00 463.00
C 455.10 467.28 464.57 469.59 469.92 472.08 C 475.28 474.56 483.04 480.28 488.00 480.00 Z"/>
</g>
<g fill="None" fill-opacity="0.0" stroke="#4FE4E4" stroke-opacity="0.09" stroke-width="0.3"><path d="
M 181.00 520.00 
C 180.34 504.15 182.33 487.09 180.00 472.00
C 180.13 486.71 179.03 504.87 181.00 520.00 Z"/>
</g>
<g fill="None" fill-opacity="0.0" stroke="#A22E2C" stroke-opacity="1.00" stroke-width="0.3"><path d="
M 623.00 624.00 
C 610.76 594.61 591.02 562.91 567.75 540.25 C 544.48 517.58 518.96 491.69 489.00 481.00
C 493.50 488.59 507.15 490.14 513.75 496.25 C 520.36 502.35 529.81 507.21 536.75 513.25 C 543.70 519.29 550.67 524.86 557.25 531.75 C 563.83 538.65 570.58 545.12 576.75 552.25 C 582.92 559.38 587.62 567.09 593.75 574.25 C 599.88 581.41 603.91 591.26 609.25 598.75 C 614.59 606.25 616.55 617.82 623.00 624.00 Z"/>
</g>
<g fill="None" fill-opacity="0.0" stroke="#A12928" stroke-opacity="1.00" stroke-width="0.3"><path d="
M 660.00 555.00 
C 660.42 547.54 649.68 538.73 645.75 531.25 C 641.83 523.76 633.57 515.69 628.25 508.75 C 622.92 501.81 615.76 494.77 609.00 489.00
C 629.28 509.28 643.97 532.25 660.00 555.00 Z"/>
</g>
<g fill="None" fill-opacity="0.0" stroke="#AB1C1D" stroke-opacity="1.00" stroke-width="0.3"><path d="
M 331.00 560.00 
C 330.25 551.71 331.00 542.26 331.00 534.00 C 331.00 525.74 329.79 516.30 332.00 509.00
C 333.15 505.21 334.48 502.39 339.00 502.00
C 332.41 501.35 328.80 507.94 330.00 515.00 C 331.20 522.06 328.42 531.58 330.00 538.00 C 331.58 544.42 326.53 555.67 331.00 560.00 Z"/>
</g>
<g fill="None" fill-opacity="0.0" stroke="#A32F2D" stroke-opacity="1.00" stroke-width="0.3"><path d="
M 343.00 502.00 
C 369.65 502.00 395.15 507.95 420.00 515.00
C 412.21 506.57 395.03 508.11 384.02 504.98 C 373.02 501.84 354.40 500.45 343.00 502.00 Z"/>
</g>
<g fill="None" fill-opacity="0.0" stroke="#FAFAFA" stroke-opacity="1.00" stroke-width="0.3"><path d="
M 332.00 509.00 
C 329.30 524.96 332.00 543.78 332.00 560.00
C 332.00 560.00 331.91 560.52 332.00 561.00
C 333.85 570.48 350.81 566.67 358.67 568.33 C 366.53 569.99 379.66 572.35 388.00 574.00
C 388.35 574.07 388.79 574.70 389.00 575.00
C 402.95 580.63 418.92 584.80 431.75 593.25 C 444.57 601.71 455.27 608.97 467.00 619.00
C 471.50 622.85 476.57 627.20 480.00 632.00
C 485.77 640.07 491.78 647.65 497.00 656.00
C 498.57 658.51 500.46 661.21 502.00 664.00
C 508.31 675.44 512.05 686.83 516.00 699.00
C 517.55 702.56 519.07 706.92 520.00 711.00
C 522.24 720.79 522.45 727.66 524.00 738.00 C 525.55 748.35 537.48 746.31 547.00 746.00 C 556.52 745.69 568.87 746.53 579.00 746.00 C 589.13 745.47 588.74 733.22 587.00 725.00 C 585.26 716.78 585.00 705.45 583.00 697.00
C 581.97 694.35 580.81 691.04 580.00 688.00
C 576.54 675.03 572.96 661.12 567.00 649.00
C 566.70 648.79 566.13 648.35 566.00 648.00
C 563.55 641.51 560.02 635.17 557.00 629.00
C 556.68 628.81 556.17 628.33 556.00 628.00
C 549.48 614.92 539.70 601.08 529.75 590.25 C 519.81 579.41 509.53 565.75 497.00 558.00
C 496.68 557.80 496.20 557.32 496.00 557.00
C 487.11 549.14 475.53 541.25 465.00 536.00
C 464.67 535.83 464.19 535.32 464.00 535.00
C 449.86 528.09 435.73 521.56 421.00 516.00
C 420.65 515.87 420.24 515.26 420.00 515.00
C 395.15 507.95 369.65 502.00 343.00 502.00
C 341.69 502.00 340.30 502.13 339.00 502.00
C 334.48 502.39 333.15 505.21 332.00 509.00 Z"/>
</g>
<g fill="None" fill-opacity="0.0" stroke="#DB817F" stroke-opacity="1.00" stroke-width="0.3"><path d="
M 331.00 560.00 
C 331.00 560.00 331.75 559.75 332.00 560.00
C 332.00 543.78 329.30 524.96 332.00 509.00
C 329.79 516.30 331.00 525.74 331.00 534.00 C 331.00 542.26 330.25 551.71 331.00 560.00 Z"/>
</g>
<g fill="None" fill-opacity="0.0" stroke="#9C2928" stroke-opacity="1.00" stroke-width="0.3"><path d="
M 421.00 516.00 
C 435.73 521.56 449.86 528.09 464.00 535.00
C 460.64 529.33 448.97 526.52 443.23 523.77 C 437.48 521.02 426.71 514.58 421.00 516.00 Z"/>
</g>
<g fill="None" fill-opacity="0.0" stroke="#4BDDDD" stroke-opacity="0.11" stroke-width="0.3"><path d="
M 181.00 521.00 
C 179.33 578.86 179.33 640.07 181.00 698.00
C 181.00 639.00 181.00 580.00 181.00 521.00 Z"/>
</g>
<g fill="None" fill-opacity="0.0" stroke="#9C2928" stroke-opacity="1.00" stroke-width="0.3"><path d="
M 465.00 536.00 
C 475.53 541.25 487.11 549.14 496.00 557.00
C 492.99 552.13 485.66 547.98 481.08 544.92 C 476.50 541.86 469.71 535.73 465.00 536.00 Z"/>
</g>
<g fill="None" fill-opacity="0.0" stroke="#9A2A28" stroke-opacity="1.00" stroke-width="0.3"><path d="
M 672.00 575.00 
C 669.86 569.06 666.07 559.96 661.00 556.00
C 664.83 561.81 668.99 568.92 672.00 575.00 Z"/>
</g>
<g fill="None" fill-opacity="0.0" stroke="#A12A29" stroke-opacity="1.00" stroke-width="0.3"><path d="
M 497.00 558.00 
C 509.53 565.75 519.81 579.41 529.75 590.25 C 539.70 601.08 549.48 614.92 556.00 628.00
C 556.44 620.28 544.52 608.20 539.77 601.23 C 535.02 594.26 526.07 582.50 519.75 577.25 C 513.44 572.00 503.77 557.47 497.00 558.00 Z"/>
</g>
<g fill="None" fill-opacity="0.0" stroke="#9B2826" stroke-opacity="1.00" stroke-width="0.3"><path d="
M 388.00 574.00 
C 379.66 572.35 366.53 569.99 358.67 568.33 C 350.81 566.67 333.85 570.48 332.00 561.00
C 328.12 566.14 343.31 568.99 347.93 568.07 C 352.54 567.16 363.31 571.27 368.98 571.02 C 374.64 570.78 382.75 575.81 388.00 574.00 Z"/>
</g>
<g fill="None" fill-opacity="0.0" stroke="#9C2928" stroke-opacity="1.00" stroke-width="0.3"><path d="
M 497.00 656.00 
C 491.78 647.65 485.77 640.07 480.00 632.00
C 476.32 627.61 471.04 623.04 467.00 619.00
C 455.27 608.97 444.57 601.71 431.75 593.25 C 418.92 584.80 402.95 580.63 389.00 575.00
C 392.86 580.47 406.25 579.63 411.92 584.08 C 417.60 588.52 426.42 590.16 432.30 594.70 C 438.19 599.24 445.65 602.76 451.30 607.70 C 456.95 612.63 462.78 616.61 468.25 621.75 C 473.72 626.90 479.01 632.55 483.70 638.30 C 488.39 644.06 492.36 650.35 497.00 656.00 Z"/>
</g>
<g fill="None" fill-opacity="0.0" stroke="#9E2D2B" stroke-opacity="1.00" stroke-width="0.3"><path d="
M 687.00 610.00 
C 685.14 601.07 680.69 589.38 675.00 581.00
C 679.58 590.27 683.43 600.34 687.00 610.00 Z"/>
</g>
<g fill="None" fill-opacity="0.0" stroke="#F8DCDC" stroke-opacity="1.00" stroke-width="0.3"><path d="
M 480.00 632.00 
C 476.57 627.20 471.50 622.85 467.00 619.00
C 471.04 623.04 476.32 627.61 480.00 632.00 Z"/>
</g>
<g fill="None" fill-opacity="0.0" stroke="#9E2E2B" stroke-opacity="1.00" stroke-width="0.3"><path d="
M 631.00 644.00 
C 629.30 637.69 627.05 630.85 624.00 625.00
C 623.13 628.34 627.83 641.06 631.00 644.00 Z"/>
</g>
<g fill="None" fill-opacity="0.0" stroke="#9B2423" stroke-opacity="1.00" stroke-width="0.3"><path d="
M 566.00 648.00 
C 566.90 644.52 561.01 631.37 557.00 629.00
C 560.02 635.17 563.55 641.51 566.00 648.00 Z"/>
</g>
<g fill="None" fill-opacity="0.0" stroke="#A3302D" stroke-opacity="1.00" stroke-width="0.3"><path d="
M 368.00 633.00 
C 397.02 625.44 429.14 639.29 440.00 668.00
C 438.22 660.72 432.99 650.94 425.75 645.25 C 418.52 639.55 409.83 633.27 401.07 631.93 C 392.32 630.58 374.89 625.96 368.00 633.00 Z"/>
</g>
<g fill="None" fill-opacity="0.0" stroke="#FAFAFA" stroke-opacity="1.00" stroke-width="0.3"><path d="
M 368.00 633.00 
C 367.75 633.25 367.35 633.87 367.00 634.00
C 346.30 641.81 329.25 660.01 328.00 683.00
C 327.77 687.25 327.77 691.75 328.00 696.00
C 328.84 711.41 338.37 726.61 351.00 736.00
C 362.79 744.77 378.56 748.06 393.00 746.00
C 417.95 742.44 438.77 724.46 443.00 699.00
C 443.15 698.12 443.89 697.44 444.00 697.00
C 445.80 690.01 444.11 678.48 442.00 672.00
C 441.41 670.83 440.56 669.47 440.00 668.00
C 429.14 639.29 397.02 625.44 368.00 633.00 Z"/>
</g>
<g fill="None" fill-opacity="0.0" stroke="#A12927" stroke-opacity="1.00" stroke-width="0.3"><path d="
M 328.00 683.00 
C 329.25 660.01 346.30 641.81 367.00 634.00
C 357.67 630.76 347.39 644.67 340.25 651.25 C 333.11 657.83 327.28 673.66 328.00 683.00 Z"/>
</g>
<g fill="None" fill-opacity="0.0" stroke="#992120" stroke-opacity="1.00" stroke-width="0.3"><path d="
M 637.00 661.00 
C 635.17 655.72 633.66 650.30 632.00 645.00
C 630.51 649.30 635.84 658.72 637.00 661.00 Z"/>
</g>
<g fill="None" fill-opacity="0.0" stroke="#A12A29" stroke-opacity="1.00" stroke-width="0.3"><path d="
M 580.00 688.00 
C 579.40 682.51 578.50 673.67 574.98 668.02 C 571.45 662.38 572.69 652.91 567.00 649.00
C 572.96 661.12 576.54 675.03 580.00 688.00 Z"/>
</g>
<g fill="None" fill-opacity="0.0" stroke="#A32B29" stroke-opacity="1.00" stroke-width="0.3"><path d="
M 707.00 679.00 
C 706.65 669.63 704.94 659.12 701.00 650.00
C 703.58 659.51 705.23 669.31 707.00 679.00 Z"/>
</g>
<g fill="None" fill-opacity="0.0" stroke="#9D2523" stroke-opacity="1.00" stroke-width="0.3"><path d="
M 516.00 699.00 
C 512.05 686.83 508.31 675.44 502.00 664.00
C 505.99 674.27 511.22 688.06 516.00 699.00 Z"/>
</g>
<g fill="None" fill-opacity="0.0" stroke="#972221" stroke-opacity="1.00" stroke-width="0.3"><path d="
M 444.00 697.00 
C 447.67 694.19 444.55 677.07 442.00 672.00
C 444.11 678.48 445.80 690.01 444.00 697.00 Z"/>
</g>
<g fill="None" fill-opacity="0.0" stroke="#A02A29" stroke-opacity="1.00" stroke-width="0.3"><path d="
M 645.00 696.00 
C 643.79 689.62 643.43 683.27 642.00 677.00
C 642.43 683.11 642.90 689.62 645.00 696.00 Z"/>
</g>
<g fill="None" fill-opacity="0.0" stroke="#9E2D2A" stroke-opacity="1.00" stroke-width="0.3"><path d="
M 712.00 715.00 
C 712.92 705.74 712.00 695.01 709.00 686.00
C 710.85 695.59 710.80 705.27 712.00 715.00 Z"/>
</g>
<g fill="None" fill-opacity="0.0" stroke="#9F2A29" stroke-opacity="1.00" stroke-width="0.3"><path d="
M 351.00 736.00 
C 338.37 726.61 328.84 711.41 328.00 696.00
C 326.84 711.14 338.16 729.05 351.00 736.00 Z"/>
</g>
<g fill="None" fill-opacity="0.0" stroke="#962222" stroke-opacity="1.00" stroke-width="0.3"><path d="
M 520.00 711.00 
C 520.85 720.01 518.28 736.11 525.75 744.25 C 533.23 752.39 553.09 743.68 564.00 747.00 C 574.91 750.32 593.06 745.30 588.98 731.02 C 584.89 716.75 587.97 709.82 583.00 697.00
C 585.00 705.45 585.26 716.78 587.00 725.00 C 588.74 733.22 589.13 745.47 579.00 746.00 C 568.87 746.53 556.52 745.69 547.00 746.00 C 537.48 746.31 525.55 748.35 524.00 738.00 C 522.45 727.66 522.24 720.79 520.00 711.00 Z"/>
</g>
<g fill="None" fill-opacity="0.0" stroke="#4BD8E1" stroke-opacity="0.13" stroke-width="0.3"><path d="
M 181.00 699.00 
C 179.32 707.52 179.35 719.41 181.00 728.00
C 181.00 718.34 181.00 708.67 181.00 699.00 Z"/>
</g>
<g fill="None" fill-opacity="0.0" stroke="#A02F2D" stroke-opacity="1.00" stroke-width="0.3"><path d="
M 393.00 746.00 
C 413.98 745.87 446.23 723.46 443.00 699.00
C 438.77 724.46 417.95 742.44 393.00 746.00 Z"/>
</g>
<g fill="None" fill-opacity="0.0" stroke="#921B1D" stroke-opacity="1.00" stroke-width="0.3"><path d="
M 713.00 717.00 
C 714.78 723.89 715.99 735.76 712.25 742.25 C 708.51 748.73 696.97 745.20 689.00 746.00 C 681.03 746.80 670.43 745.07 661.00 746.00 C 651.57 746.93 650.42 737.78 650.00 730.00
C 649.64 738.45 650.28 747.59 661.00 747.00 C 671.72 746.41 681.11 746.85 690.00 747.00 C 698.89 747.15 711.04 748.15 714.22 741.22 C 717.40 734.29 715.51 718.92 713.00 717.00 Z"/>
</g>
<g fill="None" fill-opacity="0.0" stroke="#A74B44" stroke-opacity="0.77" stroke-width="0.3"><path d="
M 844.00 752.00 
C 845.25 748.82 846.21 745.56 846.00 742.00
C 849.24 754.43 847.00 737.11 847.00 732.00
C 846.47 728.82 848.13 724.43 846.00 722.00
C 845.49 732.04 844.65 743.10 844.00 752.00 Z"/>
</g>
<g fill="None" fill-opacity="0.0" stroke="#F44949" stroke-opacity="0.20" stroke-width="0.3"><path d="
M 197.00 779.00 
C 196.83 778.67 196.18 778.27 196.00 778.00
C 196.17 778.33 196.82 778.73 197.00 779.00 Z"/>
</g>
<g fill="None" fill-opacity="0.0" stroke="#FE5D4C" stroke-opacity="0.22" stroke-width="0.3"><path d="
M 213.00 800.00 
C 212.80 799.69 212.26 799.25 212.00 799.00
C 212.23 799.28 212.76 799.75 213.00 800.00 Z"/>
</g>
<g fill="None" fill-opacity="0.0" stroke="#FE6699" stroke-opacity="0.02" stroke-width="0.3"><path d="
M 216.00 803.00 
C 215.73 802.79 215.31 802.20 215.00 802.00
C 215.25 802.24 215.68 802.80 216.00 803.00 Z"/>
</g>
<g fill="None" fill-opacity="0.0" stroke="#73737A" stroke-opacity="0.06" stroke-width="0.3"><path d="
M 243.00 821.00 
C 242.17 820.53 242.05 820.39 241.00 820.00
C 242.49 821.16 239.72 820.27 243.00 821.00 Z"/>
</g>
<g fill="None" fill-opacity="0.0" stroke="#9A171A" stroke-opacity="0.99" stroke-width="0.3"><path d="
M 263.00 828.00 
C 265.40 828.56 267.54 828.72 270.00 829.00
C 271.66 829.19 272.85 829.69 274.00 830.00
C 278.06 830.55 281.70 831.00 286.00 831.00
C 290.33 831.00 294.67 831.00 299.00 831.00
C 441.67 831.00 584.33 831.00 727.00 831.00
C 733.33 831.00 739.67 831.00 746.00 831.00
C 749.94 831.00 753.31 830.50 757.00 830.00
C 758.12 829.70 759.40 829.18 761.00 829.00
C 762.88 828.78 764.30 828.35 766.00 828.00
C 712.20 831.29 654.99 830.08 599.00 830.00 C 543.01 829.93 484.02 830.63 428.00 830.00 C 371.98 829.37 315.29 833.33 261.00 826.00
C 261.30 826.70 262.44 827.73 263.00 828.00 Z"/>
</g>
<g fill="None" fill-opacity="0.0" stroke="#ED5548" stroke-opacity="0.54" stroke-width="0.3"><path d="
M 274.00 830.00 
C 272.85 829.69 271.66 829.19 270.00 829.00
C 271.06 829.26 272.44 829.79 274.00 830.00 Z"/>
</g>
<g fill="None" fill-opacity="0.0" stroke="#EA484B" stroke-opacity="0.48" stroke-width="0.3"><path d="
M 757.00 830.00 
C 758.50 829.80 759.97 829.25 761.00 829.00
C 759.40 829.18 758.12 829.70 757.00 830.00 Z"/>
</g>
<g fill="None" fill-opacity="0.0" stroke="#FD4A48" stroke-opacity="0.59" stroke-width="0.3"><path d="
M 299.00 832.00 
C 298.96 832.00 299.00 831.00 299.00 831.00
C 294.67 831.00 290.33 831.00 286.00 831.00
C 289.66 831.35 294.59 832.00 299.00 832.00 Z"/>
</g>
<g fill="None" fill-opacity="0.0" stroke="#ED4746" stroke-opacity="0.89" stroke-width="0.3"><path d="
M 299.00 832.00 
C 441.67 832.00 584.33 832.00 727.00 832.00
C 726.96 832.00 727.00 831.00 727.00 831.00
C 584.33 831.00 441.67 831.00 299.00 831.00
C 299.00 831.00 298.96 832.00 299.00 832.00 Z"/>
</g>
<g fill="None" fill-opacity="0.0" stroke="#FE4D48" stroke-opacity="0.52" stroke-width="0.3"><path d="
M 727.00 832.00 
C 733.38 832.00 740.30 831.55 746.00 831.00
C 739.67 831.00 733.33 831.00 727.00 831.00
C 727.00 831.00 726.96 832.00 727.00 832.00 Z"/>
</g>
<g fill="#000000" fill-opacity="0.00" stroke="None">
<path d="
M 0.00 1024.00 
L 1024.00 1024.00
L 1024.00 0.00
L 0.00 0.00
L 0.00 1024.00
M 624.00 251.00 
C 621.12 254.50 618.08 259.39 615.08 263.08 C 612.08 266.78 607.21 270.89 604.75 274.75 C 602.29 278.61 596.66 283.09 594.75 286.75 C 592.84 290.41 584.93 295.48 585.00 299.00
C 596.22 295.33 610.09 300.63 622.00 299.00 C 633.91 297.37 647.83 299.78 660.00 299.00 C 672.17 298.22 684.78 299.42 697.00 299.00 C 709.22 298.58 722.58 298.89 734.00 300.00
C 741.17 300.00 748.11 299.95 755.00 301.00
C 793.04 306.80 827.48 331.92 841.00 369.00
C 842.28 372.52 843.38 376.25 844.00 380.00
C 847.49 373.64 844.11 387.66 846.00 391.00
C 848.62 382.00 847.77 391.49 847.00 396.00
C 847.63 451.33 849.75 508.30 848.00 564.00 C 846.25 619.70 852.30 677.30 847.00 732.00
C 847.00 737.11 849.24 754.43 846.00 742.00
C 846.21 745.56 845.25 748.82 844.00 752.00
C 833.62 789.75 805.02 819.88 766.00 828.00
C 764.30 828.35 762.88 828.78 761.00 829.00
C 759.97 829.25 758.50 829.80 757.00 830.00
C 753.31 830.50 749.94 831.00 746.00 831.00
C 740.30 831.55 733.38 832.00 727.00 832.00
C 584.33 832.00 441.67 832.00 299.00 832.00
C 294.59 832.00 289.66 831.35 286.00 831.00
C 281.70 831.00 278.06 830.55 274.00 830.00
C 272.44 829.79 271.06 829.26 270.00 829.00
C 267.54 828.72 265.40 828.56 263.00 828.00
C 261.22 827.58 259.41 826.47 258.00 826.00
C 253.04 824.37 247.73 823.64 243.00 821.00
C 239.72 820.27 242.49 821.16 241.00 820.00
C 231.31 816.37 224.63 808.33 216.00 803.00
C 215.68 802.80 215.25 802.24 215.00 802.00
C 213.95 801.33 213.65 801.02 213.00 800.00
C 212.76 799.75 212.23 799.28 212.00 799.00
C 206.29 793.54 200.85 786.44 197.00 779.00
C 196.82 778.73 196.17 778.33 196.00 778.00
C 188.45 763.42 183.00 747.94 183.00 731.00
C 177.82 677.52 181.97 620.46 182.00 566.00 C 182.03 511.54 177.82 453.49 183.00 400.00
C 183.00 388.13 185.22 375.58 190.00 365.00
C 206.74 327.95 243.29 300.01 285.00 300.00
C 287.00 300.00 289.00 300.00 291.00 300.00
C 296.04 299.51 302.27 299.00 308.00 299.00
C 318.72 299.00 329.26 298.75 340.00 299.00 C 350.74 299.25 362.31 298.36 373.00 299.00 C 383.69 299.64 395.57 297.56 406.00 299.00 C 416.43 300.44 428.88 296.21 438.00 298.00
C 427.86 286.74 417.63 274.22 408.75 262.25 C 399.88 250.27 387.94 238.47 379.75 226.25 C 371.56 214.02 354.82 202.10 354.00 187.00
C 353.48 183.81 351.89 179.74 352.00 176.00
C 353.67 176.24 352.17 178.85 354.00 179.00
C 356.21 157.44 387.28 151.77 399.25 166.75 C 411.21 181.73 420.96 194.02 432.75 208.25 C 444.55 222.48 454.09 236.28 465.75 250.25 C 477.42 264.21 488.68 277.31 499.00 292.00
C 515.47 294.86 529.51 287.28 537.75 274.75 C 545.99 262.22 554.67 255.47 563.25 244.25 C 571.84 233.04 580.03 224.51 588.77 213.77 C 597.51 203.03 605.94 193.47 614.77 182.77 C 623.60 172.07 631.13 159.88 646.00 158.00 C 660.88 156.13 675.87 172.40 673.00 187.00 C 670.13 201.60 659.12 209.48 650.70 220.70 C 642.27 231.92 633.18 240.80 624.00 251.00
M 524.00 288.00 
C 524.74 288.74 523.18 287.18 524.00 288.00
M 181.00 400.00 
C 180.33 410.17 182.33 421.66 180.00 431.00
C 180.12 421.63 179.05 409.30 181.00 400.00
M 180.00 470.00 
C 179.61 458.66 180.07 443.71 180.00 432.00
C 181.68 443.68 181.65 458.01 180.00 470.00
M 181.00 520.00 
C 179.03 504.87 180.13 486.71 180.00 472.00
C 182.33 487.09 180.34 504.15 181.00 520.00
M 181.00 521.00 
C 181.00 580.00 181.00 639.00 181.00 698.00
C 179.33 640.07 179.33 578.86 181.00 521.00
M 181.00 699.00 
C 181.00 708.67 181.00 718.34 181.00 728.00
C 179.35 719.41 179.32 707.52 181.00 699.00 Z"/>
</g>
<g fill="#CC3D3B" fill-opacity="1.00" stroke="None">
<path d="
M 354.00 179.00 
C 353.74 181.55 353.86 184.44 354.00 187.00
C 354.82 202.10 371.56 214.02 379.75 226.25 C 387.94 238.47 399.88 250.27 408.75 262.25 C 417.63 274.22 427.86 286.74 438.00 298.00
C 438.45 298.50 439.41 298.96 439.00 300.00
C 437.60 303.56 425.60 300.10 421.00 301.00 C 416.40 301.90 406.60 300.57 401.00 301.00 C 395.40 301.43 388.12 300.80 382.00 301.00 C 375.88 301.20 368.32 300.88 362.00 301.00 C 355.68 301.12 349.41 300.88 343.00 301.00 C 336.59 301.12 329.42 300.80 323.00 301.00 C 316.58 301.20 310.38 300.57 304.00 301.00 C 297.62 301.43 290.59 300.54 285.00 300.00
C 243.29 300.01 206.74 327.95 190.00 365.00
C 189.86 365.97 189.23 373.10 187.07 379.07 C 184.91 385.05 185.10 393.08 184.02 400.02 C 182.94 406.97 184.47 416.48 184.00 424.00 C 183.53 431.52 184.21 440.22 184.00 448.00 C 183.79 455.78 184.10 464.10 184.00 472.00 C 183.90 479.90 184.04 488.04 184.00 496.00 C 183.96 503.96 184.02 512.02 184.00 520.00 C 183.98 527.98 184.01 536.01 184.00 544.00 C 183.99 551.99 184.01 560.01 184.00 568.00 C 183.99 575.99 184.01 584.01 184.00 592.00 C 183.99 599.99 184.01 608.01 184.00 616.00 C 183.99 623.99 184.02 632.03 184.00 640.00 C 183.98 647.97 184.04 656.07 184.00 664.00 C 183.96 671.93 184.08 680.15 184.00 688.00 C 183.92 695.85 184.18 704.33 184.00 712.00 C 183.82 719.67 183.98 728.04 184.98 735.02 C 185.98 742.01 186.19 749.47 188.33 755.67 C 190.47 761.87 192.21 767.62 194.93 773.07 C 197.65 778.53 200.84 783.17 204.25 787.75 C 207.67 792.32 211.32 796.95 215.25 800.75 C 219.19 804.54 224.12 808.48 228.75 811.25 C 233.37 814.03 239.23 817.95 244.23 819.77 C 249.23 821.59 257.98 825.99 258.00 826.00
C 259.41 826.47 261.22 827.58 263.00 828.00
C 262.44 827.73 261.30 826.70 261.00 826.00
C 315.29 833.33 371.98 829.37 428.00 830.00 C 484.02 830.63 543.01 829.93 599.00 830.00 C 654.99 830.08 712.20 831.29 766.00 828.00
C 805.02 819.88 833.62 789.75 844.00 752.00
C 844.65 743.10 845.49 732.04 846.00 722.00
C 848.13 724.43 846.47 728.82 847.00 732.00
C 852.30 677.30 846.25 619.70 848.00 564.00 C 849.75 508.30 847.63 451.33 847.00 396.00
C 846.41 394.56 844.52 386.40 843.02 381.98 C 841.53 377.55 841.00 368.98 841.00 369.00
C 827.48 331.92 793.04 306.80 755.00 301.00
C 749.39 301.45 741.40 301.62 733.00 301.00 C 724.60 300.38 714.68 301.26 706.00 301.00 C 697.32 300.74 687.76 301.08 679.00 301.00 C 670.24 300.92 661.79 300.92 653.00 301.00 C 644.21 301.08 634.78 300.74 626.00 301.00 C 617.22 301.26 607.63 300.37 599.00 301.00 C 590.37 301.63 580.91 301.40 586.75 294.75 C 592.60 288.11 593.98 285.60 598.92 279.92 C 603.85 274.24 606.77 270.55 611.25 265.25 C 615.73 259.95 618.83 255.42 624.00 251.00
C 633.18 240.80 642.27 231.92 650.70 220.70 C 659.12 209.48 670.13 201.60 673.00 187.00 C 675.87 172.40 660.88 156.13 646.00 158.00 C 631.13 159.88 623.60 172.07 614.77 182.77 C 605.94 193.47 597.51 203.03 588.77 213.77 C 580.03 224.51 571.84 233.04 563.25 244.25 C 554.67 255.47 545.99 262.22 537.75 274.75 C 529.51 287.28 515.47 294.86 499.00 292.00
C 488.68 277.31 477.42 264.21 465.75 250.25 C 454.09 236.28 444.55 222.48 432.75 208.25 C 420.96 194.02 411.21 181.73 399.25 166.75 C 387.28 151.77 356.21 157.44 354.00 179.00
M 358.00 375.00 
C 358.73 375.16 359.74 375.89 361.00 376.00
C 369.33 375.57 379.62 376.29 388.22 377.78 C 396.83 379.27 407.36 380.58 413.00 383.00
C 416.27 383.76 420.40 385.21 424.00 386.00
C 428.51 386.41 433.20 387.02 438.00 389.00
C 440.31 389.95 443.32 391.20 446.00 392.00
C 453.99 393.27 473.53 396.01 480.00 403.00
C 480.24 403.26 480.65 403.87 481.00 404.00
C 486.57 402.55 501.99 411.14 507.00 415.00
C 507.89 415.69 507.76 415.64 509.00 416.00
C 513.89 417.43 518.06 420.16 522.00 423.00
C 527.91 426.44 534.04 430.31 540.00 434.00
C 549.68 437.98 569.58 448.61 576.00 459.00
C 576.20 459.32 576.68 459.80 577.00 460.00
C 582.33 459.58 594.96 474.27 599.00 479.00
C 602.07 482.60 605.45 485.97 609.00 489.00
C 615.76 494.77 622.92 501.81 628.25 508.75 C 633.57 515.69 641.83 523.76 645.75 531.25 C 649.68 538.73 660.42 547.54 660.00 555.00
C 660.21 555.30 660.71 555.77 661.00 556.00
C 666.07 559.96 669.86 569.06 672.00 575.00
C 672.79 577.20 674.06 579.10 675.00 581.00
C 680.69 589.38 685.14 601.07 687.00 610.00
C 691.83 623.08 695.64 637.57 701.00 650.00
C 704.94 659.12 706.65 669.63 707.00 679.00
C 707.43 681.36 708.35 684.05 709.00 686.00
C 712.00 695.01 712.92 705.74 712.00 715.00
C 712.14 716.13 712.83 716.36 713.00 717.00
C 715.51 718.92 717.40 734.29 714.22 741.22 C 711.04 748.15 698.89 747.15 690.00 747.00 C 681.11 746.85 671.72 746.41 661.00 747.00 C 650.28 747.59 649.64 738.45 650.00 730.00
C 649.40 718.99 648.30 706.02 645.00 696.00
C 642.90 689.62 642.43 683.11 642.00 677.00
C 640.77 671.62 638.70 665.90 637.00 661.00
C 635.84 658.72 630.51 649.30 632.00 645.00
C 631.89 644.65 631.26 644.24 631.00 644.00
C 627.83 641.06 623.13 628.34 624.00 625.00
C 623.83 624.67 623.26 624.25 623.00 624.00
C 616.55 617.82 614.59 606.25 609.25 598.75 C 603.91 591.26 599.88 581.41 593.75 574.25 C 587.62 567.09 582.92 559.38 576.75 552.25 C 570.58 545.12 563.83 538.65 557.25 531.75 C 550.67 524.86 543.70 519.29 536.75 513.25 C 529.81 507.21 520.36 502.35 513.75 496.25 C 507.15 490.14 493.50 488.59 489.00 481.00
C 488.81 480.68 488.33 480.17 488.00 480.00
C 483.04 480.28 475.28 474.56 469.92 472.08 C 464.57 469.59 455.10 467.28 451.00 463.00
C 450.75 462.74 450.35 462.11 450.00 462.00
C 447.46 462.63 442.29 461.47 440.00 459.00
C 439.76 458.74 439.35 458.11 439.00 458.00
C 430.28 461.02 416.49 450.38 405.99 450.01 C 395.50 449.64 378.99 443.90 370.00 442.00
C 361.99 441.25 353.94 440.54 346.00 440.00
C 340.62 440.16 329.37 441.04 330.03 431.98 C 330.68 422.91 328.40 413.65 330.00 406.00 C 331.60 398.35 325.96 385.87 331.00 381.00
C 331.26 380.75 332.00 381.00 332.00 381.00
C 332.00 380.50 332.00 380.00 332.00 380.00
C 329.49 376.67 337.94 372.10 342.00 373.00 C 346.06 373.90 356.23 373.92 358.00 375.00
M 339.00 502.00 
C 340.30 502.13 341.69 502.00 343.00 502.00
C 354.40 500.45 373.02 501.84 384.02 504.98 C 395.03 508.11 412.21 506.57 420.00 515.00
C 420.24 515.26 420.65 515.87 421.00 516.00
C 426.71 514.58 437.48 521.02 443.23 523.77 C 448.97 526.52 460.64 529.33 464.00 535.00
C 464.19 535.32 464.67 535.83 465.00 536.00
C 469.71 535.73 476.50 541.86 481.08 544.92 C 485.66 547.98 492.99 552.13 496.00 557.00
C 496.20 557.32 496.68 557.80 497.00 558.00
C 503.77 557.47 513.44 572.00 519.75 577.25 C 526.07 582.50 535.02 594.26 539.77 601.23 C 544.52 608.20 556.44 620.28 556.00 628.00
C 556.17 628.33 556.68 628.81 557.00 629.00
C 561.01 631.37 566.90 644.52 566.00 648.00
C 566.13 648.35 566.70 648.79 567.00 649.00
C 572.69 652.91 571.45 662.38 574.98 668.02 C 578.50 673.67 579.40 682.51 580.00 688.00
C 580.81 691.04 581.97 694.35 583.00 697.00
C 587.97 709.82 584.89 716.75 588.98 731.02 C 593.06 745.30 574.91 750.32 564.00 747.00 C 553.09 743.68 533.23 752.39 525.75 744.25 C 518.28 736.11 520.85 720.01 520.00 711.00
C 519.07 706.92 517.55 702.56 516.00 699.00
C 511.22 688.06 505.99 674.27 502.00 664.00
C 500.46 661.21 498.57 658.51 497.00 656.00
C 492.36 650.35 488.39 644.06 483.70 638.30 C 479.01 632.55 473.72 626.90 468.25 621.75 C 462.78 616.61 456.95 612.63 451.30 607.70 C 445.65 602.76 438.19 599.24 432.30 594.70 C 426.42 590.16 417.60 588.52 411.92 584.08 C 406.25 579.63 392.86 580.47 389.00 575.00
C 388.79 574.70 388.35 574.07 388.00 574.00
C 382.75 575.81 374.64 570.78 368.98 571.02 C 363.31 571.27 352.54 567.16 347.93 568.07 C 343.31 568.99 328.12 566.14 332.00 561.00
C 331.91 560.52 332.00 560.00 332.00 560.00
C 331.75 559.75 331.00 560.00 331.00 560.00
C 326.53 555.67 331.58 544.42 330.00 538.00 C 328.42 531.58 331.20 522.06 330.00 515.00 C 328.80 507.94 332.41 501.35 339.00 502.00
M 440.00 668.00 
C 440.56 669.47 441.41 670.83 442.00 672.00
C 444.55 677.07 447.67 694.19 444.00 697.00
C 443.89 697.44 443.15 698.12 443.00 699.00
C 446.23 723.46 413.98 745.87 393.00 746.00
C 378.56 748.06 362.79 744.77 351.00 736.00
C 338.16 729.05 326.84 711.14 328.00 696.00
C 327.77 691.75 327.77 687.25 328.00 683.00
C 327.28 673.66 333.11 657.83 340.25 651.25 C 347.39 644.67 357.67 630.76 367.00 634.00
C 367.35 633.87 367.75 633.25 368.00 633.00
C 374.89 625.96 392.32 630.58 401.07 631.93 C 409.83 633.27 418.52 639.55 425.75 645.25 C 432.99 650.94 438.22 660.72 440.00 668.00 Z"/>
</g>
<g fill="#B47E73" fill-opacity="0.22" stroke="None">
<path d="
M 354.00 187.00 
C 353.86 184.44 353.74 181.55 354.00 179.00
C 352.17 178.85 353.67 176.24 352.00 176.00
C 351.89 179.74 353.48 183.81 354.00 187.00 Z"/>
</g>
<g fill="#A02323" fill-opacity="0.90" stroke="None">
<path d="
M 755.00 301.00 
C 748.11 299.95 741.17 300.00 734.00 300.00
C 725.73 300.00 717.26 300.01 709.00 300.00 C 700.74 299.99 692.18 300.03 684.00 300.00 C 675.82 299.97 665.92 300.06 658.00 300.00 C 650.08 299.94 640.19 300.14 633.00 300.00 C 625.81 299.86 613.71 300.31 608.00 300.00 C 602.29 299.69 585.04 301.12 585.00 299.00
C 584.93 295.48 592.84 290.41 594.75 286.75 C 596.66 283.09 602.29 278.61 604.75 274.75 C 607.21 270.89 612.08 266.78 615.08 263.08 C 618.08 259.39 621.12 254.50 624.00 251.00
C 618.83 255.42 615.73 259.95 611.25 265.25 C 606.77 270.55 603.85 274.24 598.92 279.92 C 593.98 285.60 592.60 288.11 586.75 294.75 C 580.91 301.40 590.37 301.63 599.00 301.00 C 607.63 300.37 617.22 301.26 626.00 301.00 C 634.78 300.74 644.21 301.08 653.00 301.00 C 661.79 300.92 670.24 300.92 679.00 301.00 C 687.76 301.08 697.32 300.74 706.00 301.00 C 714.68 301.26 724.60 300.38 733.00 301.00 C 741.40 301.62 749.39 301.45 755.00 301.00 Z"/>
</g>
<g fill="#5FBFDF" fill-opacity="0.03" stroke="None">
<path d="
M 524.00 288.00 
C 523.18 287.18 524.74 288.74 524.00 288.00 Z"/>
</g>
<g fill="#B14B44" fill-opacity="0.60" stroke="None">
<path d="
M 308.00 299.00 
C 308.04 299.00 308.00 300.00 308.00 300.00
C 318.27 300.00 329.86 300.01 340.00 300.00 C 350.14 299.99 347.33 300.06 357.00 300.00 C 366.67 299.94 379.52 300.10 389.00 300.00 C 398.48 299.90 399.00 300.54 406.00 300.00 C 413.00 299.46 416.87 301.47 422.00 300.00 C 427.13 298.53 435.68 303.15 439.00 300.00
C 439.41 298.96 438.45 298.50 438.00 298.00
C 428.88 296.21 416.43 300.44 406.00 299.00 C 395.57 297.56 383.69 299.64 373.00 299.00 C 362.31 298.36 350.74 299.25 340.00 299.00 C 329.26 298.75 318.72 299.00 308.00 299.00 Z"/>
</g>
<g fill="#CB5047" fill-opacity="0.38" stroke="None">
<path d="
M 291.00 300.00 
C 296.67 300.00 302.33 300.00 308.00 300.00
C 308.00 300.00 308.04 299.00 308.00 299.00
C 302.27 299.00 296.04 299.51 291.00 300.00 Z"/>
</g>
<g fill="#B44B44" fill-opacity="0.57" stroke="None">
<path d="
M 734.00 300.00 
C 722.58 298.89 709.22 298.58 697.00 299.00 C 684.78 299.42 672.17 298.22 660.00 299.00 C 647.83 299.78 633.91 297.37 622.00 299.00 C 610.09 300.63 596.22 295.33 585.00 299.00
C 585.04 301.12 602.29 299.69 608.00 300.00 C 613.71 300.31 625.81 299.86 633.00 300.00 C 640.19 300.14 650.08 299.94 658.00 300.00 C 665.92 300.06 675.82 299.97 684.00 300.00 C 692.18 300.03 700.74 299.99 709.00 300.00 C 717.26 300.01 725.73 300.00 734.00 300.00 Z"/>
</g>
<g fill="#931719" fill-opacity="1.00" stroke="None">
<path d="
M 439.00 300.00 
C 435.68 303.15 427.13 298.53 422.00 300.00 C 416.87 301.47 413.00 299.46 406.00 300.00 C 399.00 300.54 398.48 299.90 389.00 300.00 C 379.52 300.10 366.67 299.94 357.00 300.00 C 347.33 300.06 350.14 299.99 340.00 300.00 C 329.86 300.01 318.27 300.00 308.00 300.00
C 302.33 300.00 296.67 300.00 291.00 300.00
C 289.00 300.00 287.00 300.00 285.00 300.00
C 290.59 300.54 297.62 301.43 304.00 301.00 C 310.38 300.57 316.58 301.20 323.00 301.00 C 329.42 300.80 336.59 301.12 343.00 301.00 C 349.41 300.88 355.68 301.12 362.00 301.00 C 368.32 300.88 375.88 301.20 382.00 301.00 C 388.12 300.80 395.40 301.43 401.00 301.00 C 406.60 300.57 416.40 301.90 421.00 301.00 C 425.60 300.10 437.60 303.56 439.00 300.00 Z"/>
</g>
<g fill="#AC2524" fill-opacity="0.91" stroke="None">
<path d="
M 190.00 365.00 
C 185.22 375.58 183.00 388.13 183.00 400.00
C 183.00 510.34 183.00 620.67 183.00 731.00
C 183.00 747.94 188.45 763.42 196.00 778.00
C 196.18 778.27 196.83 778.67 197.00 779.00
C 200.85 786.44 206.29 793.54 212.00 799.00
C 212.26 799.25 212.80 799.69 213.00 800.00
C 213.65 801.02 213.95 801.33 215.00 802.00
C 215.31 802.20 215.73 802.79 216.00 803.00
C 224.63 808.33 231.31 816.37 241.00 820.00
C 242.05 820.39 242.17 820.53 243.00 821.00
C 247.73 823.64 253.04 824.37 258.00 826.00
C 257.98 825.99 249.23 821.59 244.23 819.77 C 239.23 817.95 233.37 814.03 228.75 811.25 C 224.12 808.48 219.19 804.54 215.25 800.75 C 211.32 796.95 207.67 792.32 204.25 787.75 C 200.84 783.17 197.65 778.53 194.93 773.07 C 192.21 767.62 190.47 761.87 188.33 755.67 C 186.19 749.47 185.98 742.01 184.98 735.02 C 183.98 728.04 183.82 719.67 184.00 712.00 C 184.18 704.33 183.92 695.85 184.00 688.00 C 184.08 680.15 183.96 671.93 184.00 664.00 C 184.04 656.07 183.98 647.97 184.00 640.00 C 184.02 632.03 183.99 623.99 184.00 616.00 C 184.01 608.01 183.99 599.99 184.00 592.00 C 184.01 584.01 183.99 575.99 184.00 568.00 C 184.01 560.01 183.99 551.99 184.00 544.00 C 184.01 536.01 183.98 527.98 184.00 520.00 C 184.02 512.02 183.96 503.96 184.00 496.00 C 184.04 488.04 183.90 479.90 184.00 472.00 C 184.10 464.10 183.79 455.78 184.00 448.00 C 184.21 440.22 183.53 431.52 184.00 424.00 C 184.47 416.48 182.94 406.97 184.02 400.02 C 185.10 393.08 184.91 385.05 187.07 379.07 C 189.23 373.10 189.86 365.97 190.00 365.00 Z"/>
</g>
<g fill="#AF574C" fill-opacity="0.69" stroke="None">
<path d="
M 847.00 396.00 
C 847.77 391.49 848.62 382.00 846.00 391.00
C 844.11 387.66 847.49 373.64 844.00 380.00
C 843.38 376.25 842.28 372.52 841.00 369.00
C 841.00 368.98 841.53 377.55 843.02 381.98 C 844.52 386.40 846.41 394.56 847.00 396.00 Z"/>
</g>
<g fill="#9F2D2A" fill-opacity="1.00" stroke="None">
<path d="
M 332.00 380.00 
C 333.64 371.39 351.85 373.65 358.00 375.00
C 356.23 373.92 346.06 373.90 342.00 373.00 C 337.94 372.10 329.49 376.67 332.00 380.00 Z"/>
</g>
<g fill="#FAFAFA" fill-opacity="1.00" stroke="None">
<path d="
M 332.00 380.00 
C 332.00 380.00 332.00 380.50 332.00 381.00
C 332.00 397.54 329.25 416.73 332.00 433.00
C 334.28 440.50 338.84 439.51 346.00 440.00
C 353.94 440.54 361.99 441.25 370.00 442.00
C 393.59 444.21 416.64 451.00 439.00 458.00
C 439.35 458.11 439.76 458.74 440.00 459.00
C 443.37 459.91 446.62 460.94 450.00 462.00
C 450.35 462.11 450.75 462.74 451.00 463.00
C 463.54 468.23 475.85 473.71 488.00 480.00
C 488.33 480.17 488.81 480.68 489.00 481.00
C 518.96 491.69 544.48 517.58 567.75 540.25 C 591.02 562.91 610.76 594.61 623.00 624.00
C 623.26 624.25 623.83 624.67 624.00 625.00
C 627.05 630.85 629.30 637.69 631.00 644.00
C 631.26 644.24 631.89 644.65 632.00 645.00
C 633.66 650.30 635.17 655.72 637.00 661.00
C 638.70 665.90 640.77 671.62 642.00 677.00
C 643.43 683.27 643.79 689.62 645.00 696.00
C 648.30 706.02 649.40 718.99 650.00 730.00
C 650.42 737.78 651.57 746.93 661.00 746.00 C 670.43 745.07 681.03 746.80 689.00 746.00 C 696.97 745.20 708.51 748.73 712.25 742.25 C 715.99 735.76 714.78 723.89 713.00 717.00
C 712.83 716.36 712.14 716.13 712.00 715.00
C 710.80 705.27 710.85 695.59 709.00 686.00
C 708.35 684.05 707.43 681.36 707.00 679.00
C 705.23 669.31 703.58 659.51 701.00 650.00
C 695.64 637.57 691.83 623.08 687.00 610.00
C 683.43 600.34 679.58 590.27 675.00 581.00
C 674.06 579.10 672.79 577.20 672.00 575.00
C 668.99 568.92 664.83 561.81 661.00 556.00
C 660.71 555.77 660.21 555.30 660.00 555.00
C 643.97 532.25 629.28 509.28 609.00 489.00
C 605.45 485.97 602.07 482.60 599.00 479.00
C 592.73 472.73 584.51 464.65 577.00 460.00
C 576.68 459.80 576.20 459.32 576.00 459.00
C 565.21 449.46 552.13 441.51 540.00 434.00
C 534.04 430.31 527.91 426.44 522.00 423.00
C 517.83 420.57 513.07 418.09 509.00 416.00
C 507.76 415.64 507.89 415.69 507.00 415.00
C 498.70 411.06 489.64 407.26 481.00 404.00
C 480.65 403.87 480.24 403.26 480.00 403.00
C 469.12 398.46 457.30 395.38 446.00 392.00
C 443.32 391.20 440.31 389.95 438.00 389.00
C 433.42 387.76 428.68 387.02 424.00 386.00
C 420.40 385.21 416.27 383.76 413.00 383.00
C 396.09 379.07 378.53 377.50 361.00 376.00
C 359.74 375.89 358.73 375.16 358.00 375.00
C 351.85 373.65 333.64 371.39 332.00 380.00 Z"/>
</g>
<g fill="#9C2927" fill-opacity="1.00" stroke="None">
<path d="
M 361.00 376.00 
C 378.53 377.50 396.09 379.07 413.00 383.00
C 407.36 380.58 396.83 379.27 388.22 377.78 C 379.62 376.29 369.33 375.57 361.00 376.00 Z"/>
</g>
<g fill="#A71C1D" fill-opacity="1.00" stroke="None">
<path d="
M 346.00 440.00 
C 338.84 439.51 334.28 440.50 332.00 433.00
C 329.73 425.52 330.98 416.44 331.00 408.00 C 331.02 399.56 330.23 389.51 331.00 381.00
C 325.96 385.87 331.60 398.35 330.00 406.00 C 328.40 413.65 330.68 422.91 330.03 431.98 C 329.37 441.04 340.62 440.16 346.00 440.00 Z"/>
</g>
<g fill="#DB8483" fill-opacity="1.00" stroke="None">
<path d="
M 332.00 433.00 
C 329.25 416.73 332.00 397.54 332.00 381.00
C 332.00 381.00 331.26 380.75 331.00 381.00
C 330.23 389.51 331.02 399.56 331.00 408.00 C 330.98 416.44 329.73 425.52 332.00 433.00 Z"/>
</g>
<g fill="#952120" fill-opacity="1.00" stroke="None">
<path d="
M 424.00 386.00 
C 428.68 387.02 433.42 387.76 438.00 389.00
C 433.20 387.02 428.51 386.41 424.00 386.00 Z"/>
</g>
<g fill="#9B2525" fill-opacity="1.00" stroke="None">
<path d="
M 446.00 392.00 
C 457.30 395.38 469.12 398.46 480.00 403.00
C 473.53 396.01 453.99 393.27 446.00 392.00 Z"/>
</g>
<g fill="#4AD1D1" fill-opacity="0.11" stroke="None">
<path d="
M 181.00 400.00 
C 179.05 409.30 180.12 421.63 180.00 431.00
C 182.33 421.66 180.33 410.17 181.00 400.00 Z"/>
</g>
<g fill="#D64945" fill-opacity="0.78" stroke="None">
<path d="
M 183.00 731.00 
C 183.00 620.67 183.00 510.34 183.00 400.00
C 177.82 453.49 182.03 511.54 182.00 566.00 C 181.97 620.46 177.82 677.52 183.00 731.00 Z"/>
</g>
<g fill="#9D2A28" fill-opacity="1.00" stroke="None">
<path d="
M 481.00 404.00 
C 489.64 407.26 498.70 411.06 507.00 415.00
C 501.99 411.14 486.57 402.55 481.00 404.00 Z"/>
</g>
<g fill="#901D1E" fill-opacity="1.00" stroke="None">
<path d="
M 522.00 423.00 
C 518.06 420.16 513.89 417.43 509.00 416.00
C 513.07 418.09 517.83 420.57 522.00 423.00 Z"/>
</g>
<g fill="#58D9DC" fill-opacity="0.08" stroke="None">
<path d="
M 180.00 470.00 
C 181.65 458.01 181.68 443.68 180.00 432.00
C 180.07 443.71 179.61 458.66 180.00 470.00 Z"/>
</g>
<g fill="#9F2827" fill-opacity="1.00" stroke="None">
<path d="
M 540.00 434.00 
C 552.13 441.51 565.21 449.46 576.00 459.00
C 569.58 448.61 549.68 437.98 540.00 434.00 Z"/>
</g>
<g fill="#A12F2C" fill-opacity="1.00" stroke="None">
<path d="
M 439.00 458.00 
C 416.64 451.00 393.59 444.21 370.00 442.00
C 378.99 443.90 395.50 449.64 405.99 450.01 C 416.49 450.38 430.28 461.02 439.00 458.00 Z"/>
</g>
<g fill="#962827" fill-opacity="1.00" stroke="None">
<path d="
M 450.00 462.00 
C 446.62 460.94 443.37 459.91 440.00 459.00
C 442.29 461.47 447.46 462.63 450.00 462.00 Z"/>
</g>
<g fill="#9D2726" fill-opacity="1.00" stroke="None">
<path d="
M 577.00 460.00 
C 584.51 464.65 592.73 472.73 599.00 479.00
C 594.96 474.27 582.33 459.58 577.00 460.00 Z"/>
</g>
<g fill="#9C2827" fill-opacity="1.00" stroke="None">
<path d="
M 488.00 480.00 
C 475.85 473.71 463.54 468.23 451.00 463.00
C 455.10 467.28 464.57 469.59 469.92 472.08 C 475.28 474.56 483.04 480.28 488.00 480.00 Z"/>
</g>
<g fill="#4FE4E4" fill-opacity="0.09" stroke="None">
<path d="
M 181.00 520.00 
C 180.34 504.15 182.33 487.09 180.00 472.00
C 180.13 486.71 179.03 504.87 181.00 520.00 Z"/>
</g>
<g fill="#A22E2C" fill-opacity="1.00" stroke="None">
<path d="
M 623.00 624.00 
C 610.76 594.61 591.02 562.91 567.75 540.25 C 544.48 517.58 518.96 491.69 489.00 481.00
C 493.50 488.59 507.15 490.14 513.75 496.25 C 520.36 502.35 529.81 507.21 536.75 513.25 C 543.70 519.29 550.67 524.86 557.25 531.75 C 563.83 538.65 570.58 545.12 576.75 552.25 C 582.92 559.38 587.62 567.09 593.75 574.25 C 599.88 581.41 603.91 591.26 609.25 598.75 C 614.59 606.25 616.55 617.82 623.00 624.00 Z"/>
</g>
<g fill="#A12928" fill-opacity="1.00" stroke="None">
<path d="
M 660.00 555.00 
C 660.42 547.54 649.68 538.73 645.75 531.25 C 641.83 523.76 633.57 515.69 628.25 508.75 C 622.92 501.81 615.76 494.77 609.00 489.00
C 629.28 509.28 643.97 532.25 660.00 555.00 Z"/>
</g>
<g fill="#AB1C1D" fill-opacity="1.00" stroke="None">
<path d="
M 331.00 560.00 
C 330.25 551.71 331.00 542.26 331.00 534.00 C 331.00 525.74 329.79 516.30 332.00 509.00
C 333.15 505.21 334.48 502.39 339.00 502.00
C 332.41 501.35 328.80 507.94 330.00 515.00 C 331.20 522.06 328.42 531.58 330.00 538.00 C 331.58 544.42 326.53 555.67 331.00 560.00 Z"/>
</g>
<g fill="#A32F2D" fill-opacity="1.00" stroke="None">
<path d="
M 343.00 502.00 
C 369.65 502.00 395.15 507.95 420.00 515.00
C 412.21 506.57 395.03 508.11 384.02 504.98 C 373.02 501.84 354.40 500.45 343.00 502.00 Z"/>
</g>
<g fill="#FAFAFA" fill-opacity="1.00" stroke="None">
<path d="
M 332.00 509.00 
C 329.30 524.96 332.00 543.78 332.00 560.00
C 332.00 560.00 331.91 560.52 332.00 561.00
C 333.85 570.48 350.81 566.67 358.67 568.33 C 366.53 569.99 379.66 572.35 388.00 574.00
C 388.35 574.07 388.79 574.70 389.00 575.00
C 402.95 580.63 418.92 584.80 431.75 593.25 C 444.57 601.71 455.27 608.97 467.00 619.00
C 471.50 622.85 476.57 627.20 480.00 632.00
C 485.77 640.07 491.78 647.65 497.00 656.00
C 498.57 658.51 500.46 661.21 502.00 664.00
C 508.31 675.44 512.05 686.83 516.00 699.00
C 517.55 702.56 519.07 706.92 520.00 711.00
C 522.24 720.79 522.45 727.66 524.00 738.00 C 525.55 748.35 537.48 746.31 547.00 746.00 C 556.52 745.69 568.87 746.53 579.00 746.00 C 589.13 745.47 588.74 733.22 587.00 725.00 C 585.26 716.78 585.00 705.45 583.00 697.00
C 581.97 694.35 580.81 691.04 580.00 688.00
C 576.54 675.03 572.96 661.12 567.00 649.00
C 566.70 648.79 566.13 648.35 566.00 648.00
C 563.55 641.51 560.02 635.17 557.00 629.00
C 556.68 628.81 556.17 628.33 556.00 628.00
C 549.48 614.92 539.70 601.08 529.75 590.25 C 519.81 579.41 509.53 565.75 497.00 558.00
C 496.68 557.80 496.20 557.32 496.00 557.00
C 487.11 549.14 475.53 541.25 465.00 536.00
C 464.67 535.83 464.19 535.32 464.00 535.00
C 449.86 528.09 435.73 521.56 421.00 516.00
C 420.65 515.87 420.24 515.26 420.00 515.00
C 395.15 507.95 369.65 502.00 343.00 502.00
C 341.69 502.00 340.30 502.13 339.00 502.00
C 334.48 502.39 333.15 505.21 332.00 509.00 Z"/>
</g>
<g fill="#DB817F" fill-opacity="1.00" stroke="None">
<path d="
M 331.00 560.00 
C 331.00 560.00 331.75 559.75 332.00 560.00
C 332.00 543.78 329.30 524.96 332.00 509.00
C 329.79 516.30 331.00 525.74 331.00 534.00 C 331.00 542.26 330.25 551.71 331.00 560.00 Z"/>
</g>
<g fill="#9C2928" fill-opacity="1.00" stroke="None">
<path d="
M 421.00 516.00 
C 435.73 521.56 449.86 528.09 464.00 535.00
C 460.64 529.33 448.97 526.52 443.23 523.77 C 437.48 521.02 426.71 514.58 421.00 516.00 Z"/>
</g>
<g fill="#4BDDDD" fill-opacity="0.11" stroke="None">
<path d="
M 181.00 521.00 
C 179.33 578.86 179.33 640.07 181.00 698.00
C 181.00 639.00 181.00 580.00 181.00 521.00 Z"/>
</g>
<g fill="#9C2928" fill-opacity="1.00" stroke="None">
<path d="
M 465.00 536.00 
C 475.53 541.25 487.11 549.14 496.00 557.00
C 492.99 552.13 485.66 547.98 481.08 544.92 C 476.50 541.86 469.71 535.73 465.00 536.00 Z"/>
</g>
<g fill="#9A2A28" fill-opacity="1.00" stroke="None">
<path d="
M 672.00 575.00 
C 669.86 569.06 666.07 559.96 661.00 556.00
C 664.83 561.81 668.99 568.92 672.00 575.00 Z"/>
</g>
<g fill="#A12A29" fill-opacity="1.00" stroke="None">
<path d="
M 497.00 558.00 
C 509.53 565.75 519.81 579.41 529.75 590.25 C 539.70 601.08 549.48 614.92 556.00 628.00
C 556.44 620.28 544.52 608.20 539.77 601.23 C 535.02 594.26 526.07 582.50 519.75 577.25 C 513.44 572.00 503.77 557.47 497.00 558.00 Z"/>
</g>
<g fill="#9B2826" fill-opacity="1.00" stroke="None">
<path d="
M 388.00 574.00 
C 379.66 572.35 366.53 569.99 358.67 568.33 C 350.81 566.67 333.85 570.48 332.00 561.00
C 328.12 566.14 343.31 568.99 347.93 568.07 C 352.54 567.16 363.31 571.27 368.98 571.02 C 374.64 570.78 382.75 575.81 388.00 574.00 Z"/>
</g>
<g fill="#9C2928" fill-opacity="1.00" stroke="None">
<path d="
M 497.00 656.00 
C 491.78 647.65 485.77 640.07 480.00 632.00
C 476.32 627.61 471.04 623.04 467.00 619.00
C 455.27 608.97 444.57 601.71 431.75 593.25 C 418.92 584.80 402.95 580.63 389.00 575.00
C 392.86 580.47 406.25 579.63 411.92 584.08 C 417.60 588.52 426.42 590.16 432.30 594.70 C 438.19 599.24 445.65 602.76 451.30 607.70 C 456.95 612.63 462.78 616.61 468.25 621.75 C 473.72 626.90 479.01 632.55 483.70 638.30 C 488.39 644.06 492.36 650.35 497.00 656.00 Z"/>
</g>
<g fill="#9E2D2B" fill-opacity="1.00" stroke="None">
<path d="
M 687.00 610.00 
C 685.14 601.07 680.69 589.38 675.00 581.00
C 679.58 590.27 683.43 600.34 687.00 610.00 Z"/>
</g>
<g fill="#F8DCDC" fill-opacity="1.00" stroke="None">
<path d="
M 480.00 632.00 
C 476.57 627.20 471.50 622.85 467.00 619.00
C 471.04 623.04 476.32 627.61 480.00 632.00 Z"/>
</g>
<g fill="#9E2E2B" fill-opacity="1.00" stroke="None">
<path d="
M 631.00 644.00 
C 629.30 637.69 627.05 630.85 624.00 625.00
C 623.13 628.34 627.83 641.06 631.00 644.00 Z"/>
</g>
<g fill="#9B2423" fill-opacity="1.00" stroke="None">
<path d="
M 566.00 648.00 
C 566.90 644.52 561.01 631.37 557.00 629.00
C 560.02 635.17 563.55 641.51 566.00 648.00 Z"/>
</g>
<g fill="#A3302D" fill-opacity="1.00" stroke="None">
<path d="
M 368.00 633.00 
C 397.02 625.44 429.14 639.29 440.00 668.00
C 438.22 660.72 432.99 650.94 425.75 645.25 C 418.52 639.55 409.83 633.27 401.07 631.93 C 392.32 630.58 374.89 625.96 368.00 633.00 Z"/>
</g>
<g fill="#FAFAFA" fill-opacity="1.00" stroke="None">
<path d="
M 368.00 633.00 
C 367.75 633.25 367.35 633.87 367.00 634.00
C 346.30 641.81 329.25 660.01 328.00 683.00
C 327.77 687.25 327.77 691.75 328.00 696.00
C 328.84 711.41 338.37 726.61 351.00 736.00
C 362.79 744.77 378.56 748.06 393.00 746.00
C 417.95 742.44 438.77 724.46 443.00 699.00
C 443.15 698.12 443.89 697.44 444.00 697.00
C 445.80 690.01 444.11 678.48 442.00 672.00
C 441.41 670.83 440.56 669.47 440.00 668.00
C 429.14 639.29 397.02 625.44 368.00 633.00 Z"/>
</g>
<g fill="#A12927" fill-opacity="1.00" stroke="None">
<path d="
M 328.00 683.00 
C 329.25 660.01 346.30 641.81 367.00 634.00
C 357.67 630.76 347.39 644.67 340.25 651.25 C 333.11 657.83 327.28 673.66 328.00 683.00 Z"/>
</g>
<g fill="#992120" fill-opacity="1.00" stroke="None">
<path d="
M 637.00 661.00 
C 635.17 655.72 633.66 650.30 632.00 645.00
C 630.51 649.30 635.84 658.72 637.00 661.00 Z"/>
</g>
<g fill="#A12A29" fill-opacity="1.00" stroke="None">
<path d="
M 580.00 688.00 
C 579.40 682.51 578.50 673.67 574.98 668.02 C 571.45 662.38 572.69 652.91 567.00 649.00
C 572.96 661.12 576.54 675.03 580.00 688.00 Z"/>
</g>
<g fill="#A32B29" fill-opacity="1.00" stroke="None">
<path d="
M 707.00 679.00 
C 706.65 669.63 704.94 659.12 701.00 650.00
C 703.58 659.51 705.23 669.31 707.00 679.00 Z"/>
</g>
<g fill="#9D2523" fill-opacity="1.00" stroke="None">
<path d="
M 516.00 699.00 
C 512.05 686.83 508.31 675.44 502.00 664.00
C 505.99 674.27 511.22 688.06 516.00 699.00 Z"/>
</g>
<g fill="#972221" fill-opacity="1.00" stroke="None">
<path d="
M 444.00 697.00 
C 447.67 694.19 444.55 677.07 442.00 672.00
C 444.11 678.48 445.80 690.01 444.00 697.00 Z"/>
</g>
<g fill="#A02A29" fill-opacity="1.00" stroke="None">
<path d="
M 645.00 696.00 
C 643.79 689.62 643.43 683.27 642.00 677.00
C 642.43 683.11 642.90 689.62 645.00 696.00 Z"/>
</g>
<g fill="#9E2D2A" fill-opacity="1.00" stroke="None">
<path d="
M 712.00 715.00 
C 712.92 705.74 712.00 695.01 709.00 686.00
C 710.85 695.59 710.80 705.27 712.00 715.00 Z"/>
</g>
<g fill="#9F2A29" fill-opacity="1.00" stroke="None">
<path d="
M 351.00 736.00 
C 338.37 726.61 328.84 711.41 328.00 696.00
C 326.84 711.14 338.16 729.05 351.00 736.00 Z"/>
</g>
<g fill="#962222" fill-opacity="1.00" stroke="None">
<path d="
M 520.00 711.00 
C 520.85 720.01 518.28 736.11 525.75 744.25 C 533.23 752.39 553.09 743.68 564.00 747.00 C 574.91 750.32 593.06 745.30 588.98 731.02 C 584.89 716.75 587.97 709.82 583.00 697.00
C 585.00 705.45 585.26 716.78 587.00 725.00 C 588.74 733.22 589.13 745.47 579.00 746.00 C 568.87 746.53 556.52 745.69 547.00 746.00 C 537.48 746.31 525.55 748.35 524.00 738.00 C 522.45 727.66 522.24 720.79 520.00 711.00 Z"/>
</g>
<g fill="#4BD8E1" fill-opacity="0.13" stroke="None">
<path d="
M 181.00 699.00 
C 179.32 707.52 179.35 719.41 181.00 728.00
C 181.00 718.34 181.00 708.67 181.00 699.00 Z"/>
</g>
<g fill="#A02F2D" fill-opacity="1.00" stroke="None">
<path d="
M 393.00 746.00 
C 413.98 745.87 446.23 723.46 443.00 699.00
C 438.77 724.46 417.95 742.44 393.00 746.00 Z"/>
</g>
<g fill="#921B1D" fill-opacity="1.00" stroke="None">
<path d="
M 713.00 717.00 
C 714.78 723.89 715.99 735.76 712.25 742.25 C 708.51 748.73 696.97 745.20 689.00 746.00 C 681.03 746.80 670.43 745.07 661.00 746.00 C 651.57 746.93 650.42 737.78 650.00 730.00
C 649.64 738.45 650.28 747.59 661.00 747.00 C 671.72 746.41 681.11 746.85 690.00 747.00 C 698.89 747.15 711.04 748.15 714.22 741.22 C 717.40 734.29 715.51 718.92 713.00 717.00 Z"/>
</g>
<g fill="#A74B44" fill-opacity="0.77" stroke="None">
<path d="
M 844.00 752.00 
C 845.25 748.82 846.21 745.56 846.00 742.00
C 849.24 754.43 847.00 737.11 847.00 732.00
C 846.47 728.82 848.13 724.43 846.00 722.00
C 845.49 732.04 844.65 743.10 844.00 752.00 Z"/>
</g>
<g fill="#F44949" fill-opacity="0.20" stroke="None">
<path d="
M 197.00 779.00 
C 196.83 778.67 196.18 778.27 196.00 778.00
C 196.17 778.33 196.82 778.73 197.00 779.00 Z"/>
</g>
<g fill="#FE5D4C" fill-opacity="0.22" stroke="None">
<path d="
M 213.00 800.00 
C 212.80 799.69 212.26 799.25 212.00 799.00
C 212.23 799.28 212.76 799.75 213.00 800.00 Z"/>
</g>
<g fill="#FE6699" fill-opacity="0.02" stroke="None">
<path d="
M 216.00 803.00 
C 215.73 802.79 215.31 802.20 215.00 802.00
C 215.25 802.24 215.68 802.80 216.00 803.00 Z"/>
</g>
<g fill="#73737A" fill-opacity="0.06" stroke="None">
<path d="
M 243.00 821.00 
C 242.17 820.53 242.05 820.39 241.00 820.00
C 242.49 821.16 239.72 820.27 243.00 821.00 Z"/>
</g>
<g fill="#9A171A" fill-opacity="0.99" stroke="None">
<path d="
M 263.00 828.00 
C 265.40 828.56 267.54 828.72 270.00 829.00
C 271.66 829.19 272.85 829.69 274.00 830.00
C 278.06 830.55 281.70 831.00 286.00 831.00
C 290.33 831.00 294.67 831.00 299.00 831.00
C 441.67 831.00 584.33 831.00 727.00 831.00
C 733.33 831.00 739.67 831.00 746.00 831.00
C 749.94 831.00 753.31 830.50 757.00 830.00
C 758.12 829.70 759.40 829.18 761.00 829.00
C 762.88 828.78 764.30 828.35 766.00 828.00
C 712.20 831.29 654.99 830.08 599.00 830.00 C 543.01 829.93 484.02 830.63 428.00 830.00 C 371.98 829.37 315.29 833.33 261.00 826.00
C 261.30 826.70 262.44 827.73 263.00 828.00 Z"/>
</g>
<g fill="#ED5548" fill-opacity="0.54" stroke="None">
<path d="
M 274.00 830.00 
C 272.85 829.69 271.66 829.19 270.00 829.00
C 271.06 829.26 272.44 829.79 274.00 830.00 Z"/>
</g>
<g fill="#EA484B" fill-opacity="0.48" stroke="None">
<path d="
M 757.00 830.00 
C 758.50 829.80 759.97 829.25 761.00 829.00
C 759.40 829.18 758.12 829.70 757.00 830.00 Z"/>
</g>
<g fill="#FD4A48" fill-opacity="0.59" stroke="None">
<path d="
M 299.00 832.00 
C 298.96 832.00 299.00 831.00 299.00 831.00
C 294.67 831.00 290.33 831.00 286.00 831.00
C 289.66 831.35 294.59 832.00 299.00 832.00 Z"/>
</g>
<g fill="#ED4746" fill-opacity="0.89" stroke="None">
<path d="
M 299.00 832.00 
C 441.67 832.00 584.33 832.00 727.00 832.00
C 726.96 832.00 727.00 831.00 727.00 831.00
C 584.33 831.00 441.67 831.00 299.00 831.00
C 299.00 831.00 298.96 832.00 299.00 832.00 Z"/>
</g>
<g fill="#FE4D48" fill-opacity="0.52" stroke="None">
<path d="
M 727.00 832.00 
C 733.38 832.00 740.30 831.55 746.00 831.00
C 739.67 831.00 733.33 831.00 727.00 831.00
C 727.00 831.00 726.96 832.00 727.00 832.00 Z"/>
</g>
</svg>